<?xml version="1.0" encoding="utf-8"?>
<!-- Generator: Adobe Illustrator 26.0.1, SVG Export Plug-In . SVG Version: 6.00 Build 0)  -->
<svg version="1.1" id="Layer_1" xmlns="http://www.w3.org/2000/svg" xmlns:xlink="http://www.w3.org/1999/xlink" x="0px" y="0px"
	 viewBox="0 0 224.8 175.5" style="enable-background:new 0 0 224.8 175.5;" xml:space="preserve">
<style type="text/css">
	.st0{fill:url(#rect10_00000129198766418652889590000004315988649283970746_);}
	.st1{opacity:0.3096;enable-background:new    ;}
	.st2{fill:url(#rect851_00000118380083214319665820000018170131681879988874_);}
	.st3{fill:url(#rect851-3_00000183942564385007236500000017862974495618126764_);}
	.st4{fill:#FFFFFF;}
</style>
<g id="svg8" xmlns:cc="http://creativecommons.org/ns#" xmlns:dc="http://purl.org/dc/elements/1.1/" xmlns:inkscape="http://www.inkscape.org/namespaces/inkscape" xmlns:rdf="http://www.w3.org/1999/02/22-rdf-syntax-ns#" xmlns:sodipodi="http://sodipodi.sourceforge.net/DTD/sodipodi-0.dtd" xmlns:svg="http://www.w3.org/2000/svg">
	<defs>
		
			<inkscape:path-effect  effect="bounding_box" id="path-effect1893" is_visible="true" linkedpath="" lpeversion="1" visualbounds="true">
			</inkscape:path-effect>
		
			<inkscape:path-effect  apply_no_radius="true" apply_with_radius="true" chamfer_steps="1" effect="fillet_chamfer" flexible="false" hide_knots="false" id="path-effect1331" is_visible="true" lpeversion="1" method="arc" mode="F" only_selected="false" radius="8" satellites_param="F,0,0,1,0,2.1166667,0,1 @ F,0,0,1,0,2.1166667,0,1 @ F,0,0,1,0,2.1166667,0,1 @ F,0,0,1,0,2.1166667,0,1" unit="px" use_knot_distance="true">
			</inkscape:path-effect>
		
			<inkscape:path-effect  apply_no_radius="true" apply_with_radius="true" chamfer_steps="1" effect="fillet_chamfer" flexible="false" hide_knots="false" id="path-effect24" is_visible="true" lpeversion="1" method="auto" mode="F" only_selected="false" radius="16" satellites_param="F,0,0,1,0,4.2333333,0,1 @ F,0,0,1,0,0,0,1 @ F,0,0,1,0,4.2333333,0,1 @ F,0,0,1,0,4.2333333,0,1" unit="px" use_knot_distance="true">
			</inkscape:path-effect>
		
			<inkscape:path-effect  apply_no_radius="true" apply_with_radius="true" chamfer_steps="1" effect="fillet_chamfer" flexible="false" hide_knots="false" id="path-effect22" is_visible="true" lpeversion="1" method="auto" mode="F" only_selected="false" radius="16" satellites_param="F,0,0,1,0,0,0,1 @ F,0,0,1,0,4.2333333,0,1 @ F,0,0,1,0,0,0,1 @ F,0,0,1,0,0,0,1" unit="px" use_knot_distance="true">
			</inkscape:path-effect>
		
			<inkscape:path-effect  apply_no_radius="true" apply_with_radius="true" chamfer_steps="1" effect="fillet_chamfer" flexible="false" hide_knots="false" id="path-effect21" is_visible="true" lpeversion="1" method="auto" mode="F" only_selected="false" radius="16" satellites_param="F,0,0,1,0,0,0,1 @ F,0,0,1,0,4.2333333,0,1 @ F,0,0,1,0,4.2333333,0,1 @ F,0,0,1,0,4.2333333,0,1" unit="px" use_knot_distance="true">
			</inkscape:path-effect>
		
			<inkscape:path-effect  apply_no_radius="true" apply_with_radius="true" chamfer_steps="1" effect="fillet_chamfer" flexible="false" hide_knots="false" id="path-effect19" is_visible="true" lpeversion="1" method="auto" mode="F" only_selected="false" radius="16" satellites_param="F,0,0,1,0,4.2333333,0,1 @ F,0,0,1,0,0,0,1 @ F,0,0,1,0,0,0,1 @ F,0,0,1,0,0,0,1" unit="px" use_knot_distance="true">
			</inkscape:path-effect>
	</defs>
	
		<sodipodi:namedview  bordercolor="#666666" borderopacity="1.0" id="base" inkscape:current-layer="layer1" inkscape:cx="130.00668" inkscape:cy="101.16213" inkscape:document-rotation="0" inkscape:document-units="mm" inkscape:pageopacity="0.0" inkscape:pageshadow="2" inkscape:window-height="1024" inkscape:window-maximized="0" inkscape:window-width="1212" inkscape:window-x="1675" inkscape:window-y="0" inkscape:zoom="2" pagecolor="#ffffff" showgrid="false">
		</sodipodi:namedview>
	<g id="layer1" transform="translate(-41.064705,-208.49026)" inkscape:groupmode="layer" inkscape:label="Ebene 1">
		
			<linearGradient id="rect10_00000004506752065610071570000016947674299382450324_" gradientUnits="userSpaceOnUse" x1="276.6941" y1="-256.0097" x2="276.6941" y2="-431.5097" gradientTransform="matrix(1 0 0 -1 -123.1941 -47.5097)">
			<stop  offset="0.4" style="stop-color:#A9BDD3"/>
			<stop  offset="0.6" style="stop-color:#000102"/>
		</linearGradient>
		
			<path id="rect10" sodipodi:nodetypes="scccscccccccs" style="fill:url(#rect10_00000004506752065610071570000016947674299382450324_);" d="
			M53.1,208.5c-6.6,0-12,5.4-12,12v11.8V372c0,6.6,5.4,12,12,12h200.8c6.6,0,12-5.4,12-12V244.3c0-6.6-5.4-12-12-12H141.5
			c0,0-11.4-15.7-16.3-19.3c-4.9-3.6-10.7-4.5-10.7-4.5H53.1z"/>
		<g id="rect873" inkscape:path-effect="#path-effect1331" sodipodi:type="rect" class="st1">
			<path d="M54.3,248.6h79.3c4.8,0,8.6,5.2,8.6,11.6l0,0v6.5c0,6.4-3.9,11.6-8.6,11.6H54.3c-4.8,0-8.6-5.2-8.6-11.6v-6.5
				C45.6,253.8,49.5,248.6,54.3,248.6L54.3,248.6L54.3,248.6z"/>
		</g>
		
			<linearGradient id="rect851_00000045582484203859558280000013900915074561234857_" gradientUnits="userSpaceOnUse" x1="-527.3163" y1="550.3403" x2="-448.0106" y2="550.3403" gradientTransform="matrix(2.8346 0 0 2.8316 1535.8309 -1249.8436)">
			<stop  offset="0" style="stop-color:#001635"/>
			<stop  offset="1" style="stop-color:#000B1D"/>
		</linearGradient>
		<path id="rect851" style="fill:url(#rect851_00000045582484203859558280000013900915074561234857_);" d="M141.2,236.3v11.9h-28
			C127.1,248.2,130.8,244.1,141.2,236.3z M141.2,236.3h112.6c6.6,0,12,5.3,12,11.9H141.2V236.3z M53.1,248.2h212.8v120.5
			c0,6.6-5.4,12-12,12l0,0H53.1c-6.6,0-12-5.4-12-12l0,0V260.2C41.1,253.6,46.4,248.2,53.1,248.2L53.1,248.2L53.1,248.2z"/>
		
			<linearGradient id="rect851-3_00000033330513303444709970000003591193627174302607_" gradientUnits="userSpaceOnUse" x1="-494.5619" y1="529.8443" x2="-479.2531" y2="576.1414" gradientTransform="matrix(2.8346 0 0 2.8346 1535.6814 -1250.4783)">
			<stop  offset="0" style="stop-color:#001635;stop-opacity:0.4"/>
			<stop  offset="1" style="stop-color:#000B1D"/>
		</linearGradient>
		
			<path id="rect851-3" sodipodi:nodetypes="cccccccccccsccssc" style="fill:url(#rect851-3_00000033330513303444709970000003591193627174302607_);" d="
			M142.6,241.1V253h-28C128.5,252.9,132.2,248.9,142.6,241.1z M142.6,241.1h111.2c6.6,0,12,5.3,12,11.9H142.6V241.1z M53.1,253
			h212.8v115.7c0,6.6-5.4,12-12,12H53.1c-6.6,0-12-5.4-12-12V265C41.1,258.3,46.4,253,53.1,253z"/>
	</g>
</g>
<g id="Layer_3">
	<g id="Layer_86_2_">
		<path id="_64_1_" class="st4" d="M159.9,112.9c-7.4-7.9-27.9-4.7-32.7-3.9c-7.1-6.9-12-15-13.7-18c2.7-7.6,4.4-15.7,4.7-23.6
			c0-7.2-2.9-14.9-10.9-14.9c-2.8,0.1-5.3,1.6-6.7,3.9c-3.4,5.9-2.1,18,3.4,30.3c-3.2,9-7.8,22-13.9,32.5
			c-8.2,3.3-25.6,11.3-27.3,20.1c-0.5,2.6,0.4,5.3,2.4,7.1c1.9,1.7,4.5,2.6,7.1,2.5c10.5,0,20.9-14.5,28-27
			c5.9-2.1,15.4-4.8,24.9-6.5c11.1,9.7,20.9,11.1,25.9,11.1c6.8,0,9.3-2.9,10.3-5.4C162.5,118.3,161.9,115.1,159.9,112.9z
			 M152.7,117.9c-0.3,1.9-2.8,3.9-7.4,2.9c-5.3-1.3-10.3-3.9-14.5-7.3c3.6-0.6,12-1.4,17.9-0.3C150.9,113.6,153.3,114.8,152.7,117.9
			z M105,58.9c0.5-0.9,1.3-1.5,2.3-1.5c2.5,0,3.1,3.1,3.1,5.6c-0.3,6.1-1.7,12.3-3.3,17.8C102.8,69.5,103.4,61.7,105,58.9z
			 M104.4,114.3c2.3-4.5,5.5-12.6,6.6-15.9c2.5,4.2,6.8,9.5,9.1,11.9C120.1,110.3,111.4,112.1,104.4,114.3z M87.7,125.8
			c-6.7,10.8-13.3,17.6-17.2,17.6c-0.6,0-1.3-0.2-1.7-0.6c-0.7-0.6-1.1-1.5-0.9-2.5C68.6,136.5,76.3,130.9,87.7,125.8z"/>
	</g>
</g>
</svg>
