<?xml version="1.0" encoding="utf-8"?>
<!-- Generator: Adobe Illustrator 26.0.1, SVG Export Plug-In . SVG Version: 6.00 Build 0)  -->
<svg version="1.1" id="Layer_1" xmlns="http://www.w3.org/2000/svg" xmlns:xlink="http://www.w3.org/1999/xlink" x="0px" y="0px"
	 viewBox="0 0 224.8 175.5" style="enable-background:new 0 0 224.8 175.5;" xml:space="preserve">
<style type="text/css">
	.st0{fill:url(#rect10_00000003073676391764840650000003835658028270792598_);}
	.st1{opacity:0.3096;enable-background:new    ;}
	.st2{fill:url(#rect851_00000034800109901066875390000000947428727099303061_);}
	.st3{fill:url(#rect851-3_00000150080332357930245160000002472332690340927127_);}
	.st4{fill:#33FF66;}
</style>
<g id="svg8" xmlns:cc="http://creativecommons.org/ns#" xmlns:dc="http://purl.org/dc/elements/1.1/" xmlns:inkscape="http://www.inkscape.org/namespaces/inkscape" xmlns:rdf="http://www.w3.org/1999/02/22-rdf-syntax-ns#" xmlns:sodipodi="http://sodipodi.sourceforge.net/DTD/sodipodi-0.dtd" xmlns:svg="http://www.w3.org/2000/svg">
	<defs>
		
			<inkscape:path-effect  effect="bounding_box" id="path-effect1893" is_visible="true" linkedpath="" lpeversion="1" visualbounds="true">
			</inkscape:path-effect>
		
			<inkscape:path-effect  apply_no_radius="true" apply_with_radius="true" chamfer_steps="1" effect="fillet_chamfer" flexible="false" hide_knots="false" id="path-effect1331" is_visible="true" lpeversion="1" method="arc" mode="F" only_selected="false" radius="8" satellites_param="F,0,0,1,0,2.1166667,0,1 @ F,0,0,1,0,2.1166667,0,1 @ F,0,0,1,0,2.1166667,0,1 @ F,0,0,1,0,2.1166667,0,1" unit="px" use_knot_distance="true">
			</inkscape:path-effect>
		
			<inkscape:path-effect  apply_no_radius="true" apply_with_radius="true" chamfer_steps="1" effect="fillet_chamfer" flexible="false" hide_knots="false" id="path-effect24" is_visible="true" lpeversion="1" method="auto" mode="F" only_selected="false" radius="16" satellites_param="F,0,0,1,0,4.2333333,0,1 @ F,0,0,1,0,0,0,1 @ F,0,0,1,0,4.2333333,0,1 @ F,0,0,1,0,4.2333333,0,1" unit="px" use_knot_distance="true">
			</inkscape:path-effect>
		
			<inkscape:path-effect  apply_no_radius="true" apply_with_radius="true" chamfer_steps="1" effect="fillet_chamfer" flexible="false" hide_knots="false" id="path-effect22" is_visible="true" lpeversion="1" method="auto" mode="F" only_selected="false" radius="16" satellites_param="F,0,0,1,0,0,0,1 @ F,0,0,1,0,4.2333333,0,1 @ F,0,0,1,0,0,0,1 @ F,0,0,1,0,0,0,1" unit="px" use_knot_distance="true">
			</inkscape:path-effect>
		
			<inkscape:path-effect  apply_no_radius="true" apply_with_radius="true" chamfer_steps="1" effect="fillet_chamfer" flexible="false" hide_knots="false" id="path-effect21" is_visible="true" lpeversion="1" method="auto" mode="F" only_selected="false" radius="16" satellites_param="F,0,0,1,0,0,0,1 @ F,0,0,1,0,4.2333333,0,1 @ F,0,0,1,0,4.2333333,0,1 @ F,0,0,1,0,4.2333333,0,1" unit="px" use_knot_distance="true">
			</inkscape:path-effect>
		
			<inkscape:path-effect  apply_no_radius="true" apply_with_radius="true" chamfer_steps="1" effect="fillet_chamfer" flexible="false" hide_knots="false" id="path-effect19" is_visible="true" lpeversion="1" method="auto" mode="F" only_selected="false" radius="16" satellites_param="F,0,0,1,0,4.2333333,0,1 @ F,0,0,1,0,0,0,1 @ F,0,0,1,0,0,0,1 @ F,0,0,1,0,0,0,1" unit="px" use_knot_distance="true">
			</inkscape:path-effect>
	</defs>
	
		<sodipodi:namedview  bordercolor="#666666" borderopacity="1.0" id="base" inkscape:current-layer="layer1" inkscape:cx="130.00668" inkscape:cy="101.16213" inkscape:document-rotation="0" inkscape:document-units="mm" inkscape:pageopacity="0.0" inkscape:pageshadow="2" inkscape:window-height="1024" inkscape:window-maximized="0" inkscape:window-width="1212" inkscape:window-x="1675" inkscape:window-y="0" inkscape:zoom="2" pagecolor="#ffffff" showgrid="false">
		</sodipodi:namedview>
	<g id="layer1" transform="translate(-41.064705,-208.49026)" inkscape:groupmode="layer" inkscape:label="Ebene 1">
		
			<linearGradient id="rect10_00000080194033249049376380000005232346394609507718_" gradientUnits="userSpaceOnUse" x1="194.5647" y1="177.9903" x2="194.5647" y2="2.4903" gradientTransform="matrix(1 0 0 -1 -41.0647 386.4903)">
			<stop  offset="0.4" style="stop-color:#33FF66"/>
			<stop  offset="0.6" style="stop-color:#011901"/>
		</linearGradient>
		
			<path id="rect10" sodipodi:nodetypes="scccscccccccs" style="fill:url(#rect10_00000080194033249049376380000005232346394609507718_);" d="
			M53.1,208.5c-6.6,0-12,5.4-12,12v11.8V372c0,6.6,5.4,12,12,12h200.8c6.6,0,12-5.4,12-12V244.3c0-6.6-5.4-12-12-12H141.5
			c0,0-11.4-15.7-16.3-19.3c-4.9-3.6-10.7-4.5-10.7-4.5H53.1z"/>
		<g id="rect873" inkscape:path-effect="#path-effect1331" sodipodi:type="rect" class="st1">
			<path d="M54.3,248.6h79.3c4.8,0,8.6,5.2,8.6,11.6l0,0v6.5c0,6.4-3.9,11.6-8.6,11.6H54.3c-4.8,0-8.6-5.2-8.6-11.6v-6.5
				C45.6,253.8,49.5,248.6,54.3,248.6L54.3,248.6L54.3,248.6z"/>
		</g>
		
			<linearGradient id="rect851_00000031924127147431552310000002306671315783699601_" gradientUnits="userSpaceOnUse" x1="-243.1212" y1="397.0701" x2="-163.8155" y2="397.0701" gradientTransform="matrix(2.8346 0 0 2.8316 730.2514 -815.8436)">
			<stop  offset="0" style="stop-color:#024C02"/>
			<stop  offset="1" style="stop-color:#013301"/>
		</linearGradient>
		<path id="rect851" style="fill:url(#rect851_00000031924127147431552310000002306671315783699601_);" d="M141.2,236.3v11.9h-28
			C127.1,248.2,130.8,244.1,141.2,236.3z M141.2,236.3h112.6c6.6,0,12,5.3,12,11.9H141.2V236.3z M53.1,248.2h212.8v120.5
			c0,6.6-5.4,12-12,12l0,0H53.1c-6.6,0-12-5.4-12-12l0,0V260.2C41.1,253.6,46.4,248.2,53.1,248.2L53.1,248.2L53.1,248.2z"/>
		
			<linearGradient id="rect851-3_00000055677660018835828680000009098998430801145001_" gradientUnits="userSpaceOnUse" x1="-210.3667" y1="376.7363" x2="-195.0579" y2="423.0334" gradientTransform="matrix(2.8346 0 0 2.8346 730.1018 -816.4783)">
			<stop  offset="0" style="stop-color:#011901;stop-opacity:0.4"/>
			<stop  offset="1" style="stop-color:#013301"/>
		</linearGradient>
		
			<path id="rect851-3" sodipodi:nodetypes="cccccccccccsccssc" style="fill:url(#rect851-3_00000055677660018835828680000009098998430801145001_);" d="
			M142.6,241.1V253h-28C128.5,252.9,132.2,248.9,142.6,241.1z M142.6,241.1h111.2c6.6,0,12,5.3,12,11.9H142.6V241.1z M53.1,253
			h212.8v115.7c0,6.6-5.4,12-12,12H53.1c-6.6,0-12-5.4-12-12V265C41.1,258.3,46.4,253,53.1,253z"/>
	</g>
</g>
<g>
	<path class="st4" d="M104.7,119.2H79.9L74.8,135c-0.1,0.6-0.7,1-1.3,0.9H61c-0.7,0-0.9-0.4-0.7-1.2l21.5-61.6
		c0.2-0.7,0.4-1.3,0.7-2.1c0.3-1.4,0.4-2.9,0.4-4.3C82.7,66.4,83,66,83.3,66c0.1,0,0.1,0,0.2,0h17.1c0.5,0,0.8,0.2,0.9,0.5
		l24.3,68.3c0.2,0.7,0,1.1-0.7,1.1h-13.9c-0.5,0.1-0.9-0.3-1.1-0.7L104.7,119.2z M83.7,106h16.9c-0.4-1.4-0.9-3.1-1.5-4.8
		c-0.6-1.8-1.2-3.7-1.8-5.7c-0.7-2.1-1.3-4.1-1.9-6.1s-1.3-4-1.8-5.9c-0.5-1.9-1-3.6-1.5-5.2H92c-0.6,2.9-1.3,5.7-2.3,8.6
		c-1,3.2-2,6.5-3.1,9.9C85.7,100,84.7,103.2,83.7,106L83.7,106z"/>
	<path class="st4" d="M132.9,82.6h11.7c0.7,0,1.2,0.5,1.4,1.1c0.3,0.5,0.4,1.1,0.5,1.7c0.1,0.7,0.3,1.4,0.3,2.1
		c0.1,0.7,0.1,1.5,0.1,2.4c2-2.3,4.4-4.3,7.1-5.7c2.9-1.7,6.2-2.5,9.5-2.4c0.5-0.1,0.9,0.3,0.9,0.7c0,0.1,0,0.1,0,0.3v13
		c0,0.5-0.3,0.7-1.1,0.7c-2.2-0.1-4.5,0-6.7,0.5c-1.9,0.4-3.8,1-5.6,1.8c-1.5,0.7-3.2,1.5-4,2.5V135c0,0.7-0.3,0.9-0.9,0.9h-12.5
		c-0.5,0.1-1-0.3-1.1-0.8c0-0.1,0-0.2,0-0.3V98.2c0-1.6,0-3.3-0.1-5c-0.1-1.7-0.1-3.5-0.1-5.2c-0.1-1.5-0.2-3.1-0.4-4.7
		c-0.1-0.3,0.1-0.7,0.5-0.7C132.7,82.6,132.8,82.6,132.9,82.6z"/>
</g>
</svg>
