<?xml version="1.0" encoding="utf-8"?>
<!-- Generator: Adobe Illustrator 26.0.1, SVG Export Plug-In . SVG Version: 6.00 Build 0)  -->
<svg version="1.1" id="Layer_1" xmlns="http://www.w3.org/2000/svg" xmlns:xlink="http://www.w3.org/1999/xlink" x="0px" y="0px"
	 viewBox="0 0 224.8 175.5" style="enable-background:new 0 0 224.8 175.5;" xml:space="preserve">
<style type="text/css">
	.st0{fill:url(#rect10_00000176749452082902021000000005062333188838533522_);}
	.st1{opacity:0.3096;enable-background:new    ;}
	.st2{fill:url(#rect851_00000177483699422320113330000013513381231382736569_);}
	.st3{fill:url(#rect851-3_00000132789010087452920460000000098201613967194277_);}
	.st4{fill:#9999FF;}
</style>
<g id="svg8" xmlns:cc="http://creativecommons.org/ns#" xmlns:dc="http://purl.org/dc/elements/1.1/" xmlns:inkscape="http://www.inkscape.org/namespaces/inkscape" xmlns:rdf="http://www.w3.org/1999/02/22-rdf-syntax-ns#" xmlns:sodipodi="http://sodipodi.sourceforge.net/DTD/sodipodi-0.dtd" xmlns:svg="http://www.w3.org/2000/svg">
	<defs>
		
			<inkscape:path-effect  effect="bounding_box" id="path-effect1893" is_visible="true" linkedpath="" lpeversion="1" visualbounds="true">
			</inkscape:path-effect>
		
			<inkscape:path-effect  apply_no_radius="true" apply_with_radius="true" chamfer_steps="1" effect="fillet_chamfer" flexible="false" hide_knots="false" id="path-effect1331" is_visible="true" lpeversion="1" method="arc" mode="F" only_selected="false" radius="8" satellites_param="F,0,0,1,0,2.1166667,0,1 @ F,0,0,1,0,2.1166667,0,1 @ F,0,0,1,0,2.1166667,0,1 @ F,0,0,1,0,2.1166667,0,1" unit="px" use_knot_distance="true">
			</inkscape:path-effect>
		
			<inkscape:path-effect  apply_no_radius="true" apply_with_radius="true" chamfer_steps="1" effect="fillet_chamfer" flexible="false" hide_knots="false" id="path-effect24" is_visible="true" lpeversion="1" method="auto" mode="F" only_selected="false" radius="16" satellites_param="F,0,0,1,0,4.2333333,0,1 @ F,0,0,1,0,0,0,1 @ F,0,0,1,0,4.2333333,0,1 @ F,0,0,1,0,4.2333333,0,1" unit="px" use_knot_distance="true">
			</inkscape:path-effect>
		
			<inkscape:path-effect  apply_no_radius="true" apply_with_radius="true" chamfer_steps="1" effect="fillet_chamfer" flexible="false" hide_knots="false" id="path-effect22" is_visible="true" lpeversion="1" method="auto" mode="F" only_selected="false" radius="16" satellites_param="F,0,0,1,0,0,0,1 @ F,0,0,1,0,4.2333333,0,1 @ F,0,0,1,0,0,0,1 @ F,0,0,1,0,0,0,1" unit="px" use_knot_distance="true">
			</inkscape:path-effect>
		
			<inkscape:path-effect  apply_no_radius="true" apply_with_radius="true" chamfer_steps="1" effect="fillet_chamfer" flexible="false" hide_knots="false" id="path-effect21" is_visible="true" lpeversion="1" method="auto" mode="F" only_selected="false" radius="16" satellites_param="F,0,0,1,0,0,0,1 @ F,0,0,1,0,4.2333333,0,1 @ F,0,0,1,0,4.2333333,0,1 @ F,0,0,1,0,4.2333333,0,1" unit="px" use_knot_distance="true">
			</inkscape:path-effect>
		
			<inkscape:path-effect  apply_no_radius="true" apply_with_radius="true" chamfer_steps="1" effect="fillet_chamfer" flexible="false" hide_knots="false" id="path-effect19" is_visible="true" lpeversion="1" method="auto" mode="F" only_selected="false" radius="16" satellites_param="F,0,0,1,0,4.2333333,0,1 @ F,0,0,1,0,0,0,1 @ F,0,0,1,0,0,0,1 @ F,0,0,1,0,0,0,1" unit="px" use_knot_distance="true">
			</inkscape:path-effect>
	</defs>
	
		<sodipodi:namedview  bordercolor="#666666" borderopacity="1.0" id="base" inkscape:current-layer="layer1" inkscape:cx="130.00668" inkscape:cy="101.16213" inkscape:document-rotation="0" inkscape:document-units="mm" inkscape:pageopacity="0.0" inkscape:pageshadow="2" inkscape:window-height="1024" inkscape:window-maximized="0" inkscape:window-width="1212" inkscape:window-x="1675" inkscape:window-y="0" inkscape:zoom="2" pagecolor="#ffffff" showgrid="false">
		</sodipodi:namedview>
	<g id="layer1" transform="translate(-41.064705,-208.49026)" inkscape:groupmode="layer" inkscape:label="Ebene 1">
		
			<linearGradient id="rect10_00000077297786893490257680000016885213996939879606_" gradientUnits="userSpaceOnUse" x1="194.5647" y1="177.9903" x2="194.5647" y2="2.4903" gradientTransform="matrix(1 0 0 -1 -41.0647 386.4903)">
			<stop  offset="0.4" style="stop-color:#9999FF"/>
			<stop  offset="0.6" style="stop-color:#000026"/>
		</linearGradient>
		
			<path id="rect10" sodipodi:nodetypes="scccscccccccs" style="fill:url(#rect10_00000077297786893490257680000016885213996939879606_);" d="
			M53.1,208.5c-6.6,0-12,5.4-12,12v11.8V372c0,6.6,5.4,12,12,12h200.8c6.6,0,12-5.4,12-12V244.3c0-6.6-5.4-12-12-12H141.5
			c0,0-11.4-15.7-16.3-19.3c-4.9-3.6-10.7-4.5-10.7-4.5H53.1z"/>
		<g id="rect873" inkscape:path-effect="#path-effect1331" sodipodi:type="rect" class="st1">
			<path d="M54.3,248.6h79.3c4.8,0,8.6,5.2,8.6,11.6l0,0v6.5c0,6.4-3.9,11.6-8.6,11.6H54.3c-4.8,0-8.6-5.2-8.6-11.6v-6.5
				C45.6,253.8,49.5,248.6,54.3,248.6L54.3,248.6L54.3,248.6z"/>
		</g>
		
			<linearGradient id="rect851_00000099663753088627065130000004021497672398199209_" gradientUnits="userSpaceOnUse" x1="-243.1212" y1="397.0701" x2="-163.8155" y2="397.0701" gradientTransform="matrix(2.8346 0 0 2.8316 730.2514 -815.8436)">
			<stop  offset="0" style="stop-color:#000072"/>
			<stop  offset="1" style="stop-color:#00005B"/>
		</linearGradient>
		<path id="rect851" style="fill:url(#rect851_00000099663753088627065130000004021497672398199209_);" d="M141.2,236.3v11.9h-28
			C127.1,248.2,130.8,244.1,141.2,236.3z M141.2,236.3h112.6c6.6,0,12,5.3,12,11.9H141.2V236.3z M53.1,248.2h212.8v120.5
			c0,6.6-5.4,12-12,12l0,0H53.1c-6.6,0-12-5.4-12-12l0,0V260.2C41.1,253.6,46.4,248.2,53.1,248.2L53.1,248.2L53.1,248.2z"/>
		
			<linearGradient id="rect851-3_00000082346357696135386050000017413822266132133273_" gradientUnits="userSpaceOnUse" x1="-210.3667" y1="376.7363" x2="-195.0579" y2="423.0334" gradientTransform="matrix(2.8346 0 0 2.8346 730.1018 -816.4783)">
			<stop  offset="0" style="stop-color:#000072;stop-opacity:0.4"/>
			<stop  offset="1" style="stop-color:#00005B"/>
		</linearGradient>
		
			<path id="rect851-3" sodipodi:nodetypes="cccccccccccsccssc" style="fill:url(#rect851-3_00000082346357696135386050000017413822266132133273_);" d="
			M142.6,241.1V253h-28C128.5,252.9,132.2,248.9,142.6,241.1z M142.6,241.1h111.2c6.6,0,12,5.3,12,11.9H142.6V241.1z M53.1,253
			h212.8v115.7c0,6.6-5.4,12-12,12H53.1c-6.6,0-12-5.4-12-12V265C41.1,258.3,46.4,253,53.1,253z"/>
	</g>
</g>
<g id="Outlined_Mnemonics_Logos_10_">
	<g id="Ae">
		<path class="st4" d="M98.2,118.9H73.4l-5.1,15.7c-0.1,0.6-0.7,1-1.3,0.9H54.5c-0.7,0-0.9-0.4-0.7-1.2l21.5-61.5
			c0.2-0.7,0.4-1.3,0.7-2.1c0.3-1.4,0.4-2.9,0.4-4.3c-0.1-0.3,0.2-0.7,0.5-0.7c0.1,0,0.1,0,0.2,0h17.1c0.5,0,0.8,0.2,0.9,0.5
			l24.3,68.3c0.2,0.7,0,1.1-0.7,1.1h-13.9c-0.5,0.1-0.9-0.3-1.1-0.7L98.2,118.9z M77.2,105.6h16.9c-0.4-1.4-0.9-3.1-1.5-4.8
			c-0.6-1.8-1.2-3.7-1.8-5.7C90.2,93,89.6,91,88.9,89c-0.7-2.1-1.3-4-1.8-5.9c-0.5-1.9-1-3.6-1.5-5.2h-0.1c-0.6,2.9-1.3,5.7-2.3,8.6
			c-1,3.2-2,6.5-3.1,9.9C79.3,99.7,78.2,102.8,77.2,105.6z"/>
		<path class="st4" d="M158.8,112.8h-21.1c0.3,2.1,0.9,4.1,2.1,5.9c1.2,1.8,2.9,3.2,4.9,4c2.7,1.1,5.6,1.7,8.5,1.7
			c2.3-0.1,4.7-0.3,6.9-0.7c2.1-0.3,4.1-0.8,5.9-1.5c0.3-0.3,0.5-0.1,0.5,0.5v10.2c0,0.3-0.1,0.5-0.1,0.8c-0.1,0.2-0.3,0.3-0.5,0.5
			c-2.1,0.9-4.3,1.6-6.7,2c-3.1,0.6-6.3,0.9-9.5,0.8c-5.1,0-9.3-0.8-12.8-2.3c-3.3-1.4-6.1-3.6-8.4-6.3c-2.1-2.6-3.7-5.5-4.6-8.7
			c-0.9-3.1-1.4-6.4-1.4-9.7c0-3.6,0.5-7.1,1.7-10.6c1.1-3.3,2.7-6.4,5-9.1c2.2-2.7,4.9-4.8,8.1-6.3c3.1-1.5,6.9-2.1,11.1-2.1
			c3.5-0.1,7.1,0.6,10.3,2.1c2.7,1.2,5.1,3,7,5.3c1.7,2.3,3.1,4.8,4,7.6c0.9,2.7,1.3,5.4,1.3,8.1c0,1.6-0.1,3-0.1,4.3
			c-0.1,1.3-0.2,2.2-0.3,2.8c-0.1,0.5-0.5,0.9-0.9,0.9c-0.4,0-1.1,0.1-2.2,0.1c-1.1,0.1-2.3,0.2-3.9,0.2
			C162.2,113,160.6,112.8,158.8,112.8z M137.7,103h14.1c1.7,0,3,0,3.8-0.1c0.5-0.1,1.1-0.2,1.5-0.5v-0.7c0-0.9-0.1-1.7-0.4-2.5
			c-1.2-3.7-4.7-6.3-8.7-6.1c-3.7-0.2-7.1,1.7-8.9,5.1C138.4,99.8,137.9,101.4,137.7,103z"/>
	</g>
</g>
</svg>
