<?xml version="1.0" encoding="utf-8"?>
<!-- Generator: Adobe Illustrator 26.0.1, SVG Export Plug-In . SVG Version: 6.00 Build 0)  -->
<svg version="1.1" id="Layer_1" xmlns="http://www.w3.org/2000/svg" xmlns:xlink="http://www.w3.org/1999/xlink" x="0px" y="0px"
	 viewBox="0 0 224.8 175.5" style="enable-background:new 0 0 224.8 175.5;" xml:space="preserve">
<style type="text/css">
	.st0{fill:url(#rect10_00000145751737420962792860000008572807908554554017_);}
	.st1{opacity:0.3096;enable-background:new    ;}
	.st2{fill:url(#rect851_00000070095248379390517330000004440103125609544854_);}
	.st3{fill:url(#rect851-3_00000107556070273697492250000008544379729847506109_);}
	.st4{fill:#9999FF;}
</style>
<g id="svg8" xmlns:cc="http://creativecommons.org/ns#" xmlns:dc="http://purl.org/dc/elements/1.1/" xmlns:inkscape="http://www.inkscape.org/namespaces/inkscape" xmlns:rdf="http://www.w3.org/1999/02/22-rdf-syntax-ns#" xmlns:sodipodi="http://sodipodi.sourceforge.net/DTD/sodipodi-0.dtd" xmlns:svg="http://www.w3.org/2000/svg">
	<defs>
		
			<inkscape:path-effect  effect="bounding_box" id="path-effect1893" is_visible="true" linkedpath="" lpeversion="1" visualbounds="true">
			</inkscape:path-effect>
		
			<inkscape:path-effect  apply_no_radius="true" apply_with_radius="true" chamfer_steps="1" effect="fillet_chamfer" flexible="false" hide_knots="false" id="path-effect1331" is_visible="true" lpeversion="1" method="arc" mode="F" only_selected="false" radius="8" satellites_param="F,0,0,1,0,2.1166667,0,1 @ F,0,0,1,0,2.1166667,0,1 @ F,0,0,1,0,2.1166667,0,1 @ F,0,0,1,0,2.1166667,0,1" unit="px" use_knot_distance="true">
			</inkscape:path-effect>
		
			<inkscape:path-effect  apply_no_radius="true" apply_with_radius="true" chamfer_steps="1" effect="fillet_chamfer" flexible="false" hide_knots="false" id="path-effect24" is_visible="true" lpeversion="1" method="auto" mode="F" only_selected="false" radius="16" satellites_param="F,0,0,1,0,4.2333333,0,1 @ F,0,0,1,0,0,0,1 @ F,0,0,1,0,4.2333333,0,1 @ F,0,0,1,0,4.2333333,0,1" unit="px" use_knot_distance="true">
			</inkscape:path-effect>
		
			<inkscape:path-effect  apply_no_radius="true" apply_with_radius="true" chamfer_steps="1" effect="fillet_chamfer" flexible="false" hide_knots="false" id="path-effect22" is_visible="true" lpeversion="1" method="auto" mode="F" only_selected="false" radius="16" satellites_param="F,0,0,1,0,0,0,1 @ F,0,0,1,0,4.2333333,0,1 @ F,0,0,1,0,0,0,1 @ F,0,0,1,0,0,0,1" unit="px" use_knot_distance="true">
			</inkscape:path-effect>
		
			<inkscape:path-effect  apply_no_radius="true" apply_with_radius="true" chamfer_steps="1" effect="fillet_chamfer" flexible="false" hide_knots="false" id="path-effect21" is_visible="true" lpeversion="1" method="auto" mode="F" only_selected="false" radius="16" satellites_param="F,0,0,1,0,0,0,1 @ F,0,0,1,0,4.2333333,0,1 @ F,0,0,1,0,4.2333333,0,1 @ F,0,0,1,0,4.2333333,0,1" unit="px" use_knot_distance="true">
			</inkscape:path-effect>
		
			<inkscape:path-effect  apply_no_radius="true" apply_with_radius="true" chamfer_steps="1" effect="fillet_chamfer" flexible="false" hide_knots="false" id="path-effect19" is_visible="true" lpeversion="1" method="auto" mode="F" only_selected="false" radius="16" satellites_param="F,0,0,1,0,4.2333333,0,1 @ F,0,0,1,0,0,0,1 @ F,0,0,1,0,0,0,1 @ F,0,0,1,0,0,0,1" unit="px" use_knot_distance="true">
			</inkscape:path-effect>
	</defs>
	
		<sodipodi:namedview  bordercolor="#666666" borderopacity="1.0" id="base" inkscape:current-layer="layer1" inkscape:cx="130.00668" inkscape:cy="101.16213" inkscape:document-rotation="0" inkscape:document-units="mm" inkscape:pageopacity="0.0" inkscape:pageshadow="2" inkscape:window-height="1024" inkscape:window-maximized="0" inkscape:window-width="1212" inkscape:window-x="1675" inkscape:window-y="0" inkscape:zoom="2" pagecolor="#ffffff" showgrid="false">
		</sodipodi:namedview>
	<g id="layer1" transform="translate(-41.064705,-208.49026)" inkscape:groupmode="layer" inkscape:label="Ebene 1">
		
			<linearGradient id="rect10_00000124151503211747479190000000782848909971281581_" gradientUnits="userSpaceOnUse" x1="235.6294" y1="642.5" x2="235.6294" y2="818" gradientTransform="matrix(1 0 0 1 -82.1294 -434)">
			<stop  offset="0.4" style="stop-color:#9999FF"/>
			<stop  offset="0.6" style="stop-color:#000026"/>
		</linearGradient>
		
			<path id="rect10" sodipodi:nodetypes="scccscccccccs" style="fill:url(#rect10_00000124151503211747479190000000782848909971281581_);" d="
			M53.1,208.5c-6.6,0-12,5.4-12,12v11.8V372c0,6.6,5.4,12,12,12h200.8c6.6,0,12-5.4,12-12V244.3c0-6.6-5.4-12-12-12H141.5
			c0,0-11.4-15.7-16.3-19.3c-4.9-3.6-10.7-4.5-10.7-4.5H53.1z"/>
		<g id="rect873" inkscape:path-effect="#path-effect1331" sodipodi:type="rect" class="st1">
			<path d="M54.3,248.6h79.3c4.8,0,8.6,5.2,8.6,11.6l0,0v6.5c0,6.4-3.9,11.6-8.6,11.6H54.3c-4.8,0-8.6-5.2-8.6-11.6v-6.5
				C45.6,253.8,49.5,248.6,54.3,248.6L54.3,248.6L54.3,248.6z"/>
		</g>
		
			<linearGradient id="rect851_00000013872634864607520280000006040916773230991752_" gradientUnits="userSpaceOnUse" x1="-385.2188" y1="129.7851" x2="-305.9131" y2="129.7851" gradientTransform="matrix(2.8346 0 0 -2.8316 1133.0411 675.9994)">
			<stop  offset="0" style="stop-color:#000072"/>
			<stop  offset="1" style="stop-color:#00005B"/>
		</linearGradient>
		<path id="rect851" style="fill:url(#rect851_00000013872634864607520280000006040916773230991752_);" d="M141.2,236.3v11.9h-28
			C127.1,248.2,130.8,244.1,141.2,236.3z M141.2,236.3h112.6c6.6,0,12,5.3,12,11.9H141.2V236.3z M53.1,248.2h212.8v120.5
			c0,6.6-5.4,12-12,12l0,0H53.1c-6.6,0-12-5.4-12-12l0,0V260.2C41.1,253.6,46.4,248.2,53.1,248.2L53.1,248.2L53.1,248.2z"/>
		
			<linearGradient id="rect851-3_00000026141405108438136630000013245684514749409461_" gradientUnits="userSpaceOnUse" x1="-352.4643" y1="150.2" x2="-337.1555" y2="103.9029" gradientTransform="matrix(2.8346 0 0 -2.8346 1132.8916 677.1752)">
			<stop  offset="0" style="stop-color:#000072;stop-opacity:0.4"/>
			<stop  offset="1" style="stop-color:#00005B"/>
		</linearGradient>
		
			<path id="rect851-3" sodipodi:nodetypes="cccccccccccsccssc" style="fill:url(#rect851-3_00000026141405108438136630000013245684514749409461_);" d="
			M142.6,241.1V253h-28C128.5,252.9,132.2,248.9,142.6,241.1z M142.6,241.1h111.2c6.6,0,12,5.3,12,11.9H142.6V241.1z M53.1,253
			h212.8v115.7c0,6.6-5.4,12-12,12H53.1c-6.6,0-12-5.4-12-12V265C41.1,258.3,46.4,253,53.1,253z"/>
	</g>
</g>
<g>
	<path class="st4" d="M98.2,119H73.4l-5.1,15.7c-0.1,0.6-0.7,1-1.2,0.9H54.6c-0.7,0-0.9-0.4-0.7-1.2l21.5-61.7
		c0.2-0.7,0.4-1.4,0.7-2.2c0.3-1.4,0.6-2.8,0.6-4.2c-0.1-0.3,0.2-0.7,0.6-0.7c0.1,0,0.1,0,0.2,0h17.1c0.4,0,0.8,0.2,0.9,0.6
		l24.2,68.4c0.2,0.7,0,1.1-0.7,1.1h-13.9c-0.4,0.1-0.9-0.2-1.1-0.7L98.2,119z M77.3,105.7h16.9c-0.4-1.4-0.9-3.1-1.6-4.8
		c-0.6-1.8-1.2-3.7-1.8-5.7c-0.7-2.1-1.2-4.1-1.9-6.1c-0.7-2.1-1.2-4-1.8-5.9c-0.6-1.9-1-3.6-1.5-5.2h-0.1c-0.6,2.9-1.3,5.7-2.2,8.6
		c-1,3.2-2,6.6-3.1,9.9C79.3,99.8,78.3,102.9,77.3,105.7L77.3,105.7z"/>
	<path class="st4" d="M170.6,83.1V124c0,1.8,0,3.4,0.1,4.8c0.1,1.4,0.1,2.6,0.2,3.7c0.1,1.1,0.2,1.7,0.2,2.4
		c0.1,0.6-0.2,0.9-0.7,0.9h-11.4c-0.6,0.1-1.1-0.2-1.2-0.7c-0.1-0.6-0.2-1.1-0.4-1.7c-0.1-0.4-0.1-0.9-0.1-1.4
		c-2.1,1.9-4.7,3.3-7.6,4.1c-2.4,0.7-4.9,1-7.4,1c-2.5,0-4.9-0.3-7.2-1.1c-2.1-0.7-4.1-2-5.7-3.7c-1.7-1.9-3-4.1-3.7-6.5
		c-0.9-3.1-1.4-6.2-1.3-9.5V83.2c-0.1-0.4,0.2-0.8,0.7-0.9c0.1,0,0.1,0,0.2,0h12.7c0.4-0.1,0.8,0.2,0.9,0.7c0,0.1,0,0.1,0,0.2v31.3
		c0,2.9,0.7,5.2,1.9,6.9c1.2,1.7,3.9,2.6,6.9,2.6c1.6,0,3.1-0.2,4.6-0.8c1.6-0.6,2.9-1.2,4.2-2.2V83.1c0-0.4,0.3-0.7,0.9-0.7h12.7
		c0.3-0.1,0.7,0.2,0.7,0.6C170.6,83,170.6,83,170.6,83.1z"/>
</g>
</svg>
