<?xml version="1.0" encoding="utf-8"?>
<!-- Generator: Adobe Illustrator 26.0.1, SVG Export Plug-In . SVG Version: 6.00 Build 0)  -->
<svg version="1.1" id="Layer_1" xmlns="http://www.w3.org/2000/svg" xmlns:xlink="http://www.w3.org/1999/xlink" x="0px" y="0px"
	 viewBox="0 0 224.8 175.5" style="enable-background:new 0 0 224.8 175.5;" xml:space="preserve">
<style type="text/css">
	.st0{fill:url(#rect10_00000119081810138738275870000016657554082392775054_);}
	.st1{opacity:0.3096;enable-background:new    ;}
	.st2{fill:url(#rect851_00000157309786754225608920000011389391428390117050_);}
	.st3{fill:url(#rect851-3_00000178163717658383312780000000829460025862128060_);}
	.st4{fill:#FFFFFF;}
</style>
<g id="svg8" xmlns:cc="http://creativecommons.org/ns#" xmlns:dc="http://purl.org/dc/elements/1.1/" xmlns:inkscape="http://www.inkscape.org/namespaces/inkscape" xmlns:rdf="http://www.w3.org/1999/02/22-rdf-syntax-ns#" xmlns:sodipodi="http://sodipodi.sourceforge.net/DTD/sodipodi-0.dtd" xmlns:svg="http://www.w3.org/2000/svg">
	<defs>
		
			<inkscape:path-effect  effect="bounding_box" id="path-effect1893" is_visible="true" linkedpath="" lpeversion="1" visualbounds="true">
			</inkscape:path-effect>
		
			<inkscape:path-effect  apply_no_radius="true" apply_with_radius="true" chamfer_steps="1" effect="fillet_chamfer" flexible="false" hide_knots="false" id="path-effect1331" is_visible="true" lpeversion="1" method="arc" mode="F" only_selected="false" radius="8" satellites_param="F,0,0,1,0,2.1166667,0,1 @ F,0,0,1,0,2.1166667,0,1 @ F,0,0,1,0,2.1166667,0,1 @ F,0,0,1,0,2.1166667,0,1" unit="px" use_knot_distance="true">
			</inkscape:path-effect>
		
			<inkscape:path-effect  apply_no_radius="true" apply_with_radius="true" chamfer_steps="1" effect="fillet_chamfer" flexible="false" hide_knots="false" id="path-effect24" is_visible="true" lpeversion="1" method="auto" mode="F" only_selected="false" radius="16" satellites_param="F,0,0,1,0,4.2333333,0,1 @ F,0,0,1,0,0,0,1 @ F,0,0,1,0,4.2333333,0,1 @ F,0,0,1,0,4.2333333,0,1" unit="px" use_knot_distance="true">
			</inkscape:path-effect>
		
			<inkscape:path-effect  apply_no_radius="true" apply_with_radius="true" chamfer_steps="1" effect="fillet_chamfer" flexible="false" hide_knots="false" id="path-effect22" is_visible="true" lpeversion="1" method="auto" mode="F" only_selected="false" radius="16" satellites_param="F,0,0,1,0,0,0,1 @ F,0,0,1,0,4.2333333,0,1 @ F,0,0,1,0,0,0,1 @ F,0,0,1,0,0,0,1" unit="px" use_knot_distance="true">
			</inkscape:path-effect>
		
			<inkscape:path-effect  apply_no_radius="true" apply_with_radius="true" chamfer_steps="1" effect="fillet_chamfer" flexible="false" hide_knots="false" id="path-effect21" is_visible="true" lpeversion="1" method="auto" mode="F" only_selected="false" radius="16" satellites_param="F,0,0,1,0,0,0,1 @ F,0,0,1,0,4.2333333,0,1 @ F,0,0,1,0,4.2333333,0,1 @ F,0,0,1,0,4.2333333,0,1" unit="px" use_knot_distance="true">
			</inkscape:path-effect>
		
			<inkscape:path-effect  apply_no_radius="true" apply_with_radius="true" chamfer_steps="1" effect="fillet_chamfer" flexible="false" hide_knots="false" id="path-effect19" is_visible="true" lpeversion="1" method="auto" mode="F" only_selected="false" radius="16" satellites_param="F,0,0,1,0,4.2333333,0,1 @ F,0,0,1,0,0,0,1 @ F,0,0,1,0,0,0,1 @ F,0,0,1,0,0,0,1" unit="px" use_knot_distance="true">
			</inkscape:path-effect>
	</defs>
	
		<sodipodi:namedview  bordercolor="#666666" borderopacity="1.0" id="base" inkscape:current-layer="layer1" inkscape:cx="130.00668" inkscape:cy="101.16213" inkscape:document-rotation="0" inkscape:document-units="mm" inkscape:pageopacity="0.0" inkscape:pageshadow="2" inkscape:window-height="1024" inkscape:window-maximized="0" inkscape:window-width="1212" inkscape:window-x="1675" inkscape:window-y="0" inkscape:zoom="2" pagecolor="#ffffff" showgrid="false">
		</sodipodi:namedview>
	<g id="layer1" transform="translate(-41.064705,-208.49026)" inkscape:groupmode="layer" inkscape:label="Ebene 1">
		
			<linearGradient id="rect10_00000086650850836366396430000012254251273582768562_" gradientUnits="userSpaceOnUse" x1="194.5647" y1="177.9903" x2="194.5647" y2="2.4903" gradientTransform="matrix(1 0 0 -1 -41.0647 386.4903)">
			<stop  offset="0.4" style="stop-color:#A9BDD3"/>
			<stop  offset="0.6" style="stop-color:#000102"/>
		</linearGradient>
		
			<path id="rect10" sodipodi:nodetypes="scccscccccccs" style="fill:url(#rect10_00000086650850836366396430000012254251273582768562_);" d="
			M53.1,208.5c-6.6,0-12,5.4-12,12v11.8V372c0,6.6,5.4,12,12,12h200.8c6.6,0,12-5.4,12-12V244.3c0-6.6-5.4-12-12-12H141.5
			c0,0-11.4-15.7-16.3-19.3c-4.9-3.6-10.7-4.5-10.7-4.5H53.1z"/>
		<g id="rect873" inkscape:path-effect="#path-effect1331" sodipodi:type="rect" class="st1">
			<path d="M54.3,248.6h79.3c4.8,0,8.6,5.2,8.6,11.6l0,0v6.5c0,6.4-3.9,11.6-8.6,11.6H54.3c-4.8,0-8.6-5.2-8.6-11.6v-6.5
				C45.6,253.8,49.5,248.6,54.3,248.6L54.3,248.6L54.3,248.6z"/>
		</g>
		
			<linearGradient id="rect851_00000150803370555435898170000009324263438037264295_" gradientUnits="userSpaceOnUse" x1="-243.1212" y1="397.0701" x2="-163.8155" y2="397.0701" gradientTransform="matrix(2.8346 0 0 2.8316 730.2514 -815.8436)">
			<stop  offset="0" style="stop-color:#001635"/>
			<stop  offset="1" style="stop-color:#000B1D"/>
		</linearGradient>
		<path id="rect851" style="fill:url(#rect851_00000150803370555435898170000009324263438037264295_);" d="M141.2,236.3v11.9h-28
			C127.1,248.2,130.8,244.1,141.2,236.3z M141.2,236.3h112.6c6.6,0,12,5.3,12,11.9H141.2V236.3z M53.1,248.2h212.8v120.5
			c0,6.6-5.4,12-12,12l0,0H53.1c-6.6,0-12-5.4-12-12l0,0V260.2C41.1,253.6,46.4,248.2,53.1,248.2L53.1,248.2L53.1,248.2z"/>
		
			<linearGradient id="rect851-3_00000049928258663217314770000001758959884456316058_" gradientUnits="userSpaceOnUse" x1="-210.3667" y1="376.7363" x2="-195.0579" y2="423.0334" gradientTransform="matrix(2.8346 0 0 2.8346 730.1018 -816.4783)">
			<stop  offset="0" style="stop-color:#001635;stop-opacity:0.4"/>
			<stop  offset="1" style="stop-color:#000B1D"/>
		</linearGradient>
		
			<path id="rect851-3" sodipodi:nodetypes="cccccccccccsccssc" style="fill:url(#rect851-3_00000049928258663217314770000001758959884456316058_);" d="
			M142.6,241.1V253h-28C128.5,252.9,132.2,248.9,142.6,241.1z M142.6,241.1h111.2c6.6,0,12,5.3,12,11.9H142.6V241.1z M53.1,253
			h212.8v115.7c0,6.6-5.4,12-12,12H53.1c-6.6,0-12-5.4-12-12V265C41.1,258.3,46.4,253,53.1,253z"/>
	</g>
</g>
<g id="Outlined_Mnemonics_Logos_18_">
	<g id="Be">
		<path class="st4" d="M58.4,134.8V66.6c0-0.7,0.2-1,0.7-1.1c1.2-0.1,3.1-0.1,5.6-0.1c2.5-0.1,5.2-0.1,8.1-0.1s5.6-0.1,8.1-0.1
			c5.9,0,10.5,0.7,14,1.9c3.5,1.3,6.1,2.9,8,4.9c1.7,1.7,3,3.9,3.7,6.2c0.6,1.9,0.9,3.9,0.9,5.9c0.1,2.1-0.3,4.3-1.1,6.3
			c-0.6,1.7-1.5,3.2-2.6,4.5c-0.8,1.1-1.8,1.9-2.9,2.7c1.5,0.8,2.9,1.8,4.3,2.9c1.7,1.5,3.1,3.3,4,5.3c1.2,2.6,1.8,5.4,1.7,8.3
			c0.1,4.1-1.2,8.1-3.6,11.4c-2.4,3.3-5.8,5.9-10.3,7.7C92.6,135,87.3,136,81,136h-7.1c-2.3,0-4.3,0-6.2-0.1
			c-1.9-0.1-3.5-0.1-4.9-0.1c-1.4-0.1-2.6-0.1-3.6-0.1C58.7,135.7,58.4,135.4,58.4,134.8z M72.9,78V93h7.3c1.9,0,3.8,0.1,5.7,0.1
			c1.3,0,2.7,0.1,4,0.4c0.9-0.8,1.7-1.8,2.3-2.9c0.7-1.3,0.9-2.8,0.9-4.3c0.1-1.7-0.4-3.3-1.4-4.7c-1.1-1.3-2.5-2.3-4-2.7
			c-2.2-0.7-4.5-1-6.7-0.9h-3.1c-0.9,0-1.8,0-2.5,0.1C74.5,78,73.7,78,72.9,78z M72.9,105.6v17.7c1.2,0.1,2.4,0.1,3.7,0.1
			c1.2,0.1,2.7,0.1,4.4,0.1c2.6,0.1,5.3-0.3,7.8-0.9c1.9-0.5,3.7-1.5,5.1-3c1.1-1.4,1.8-3.2,1.7-5.1c0.1-1.8-0.5-3.5-1.4-5.1
			c-0.9-1.4-2.7-2.5-5.1-3.1c-1-0.3-1.9-0.4-2.9-0.5c-1.3-0.1-2.6-0.2-3.9-0.2H72.9z"/>
		<path class="st4" d="M154.1,113H133c0.3,2,0.9,3.9,2.1,5.7c1.2,1.8,2.9,3.2,4.9,4c2.2,1,5,1.5,8.5,1.5c2.3,0,4.7-0.2,6.9-0.6
			c2.1-0.4,4.3-1,6.3-1.9c0.3-0.3,0.5-0.1,0.5,0.5v10.2c0,0.3-0.1,0.5-0.1,0.8c-0.1,0.2-0.3,0.3-0.5,0.5c-2.2,1.1-4.5,1.8-7,2.3
			c-3.1,0.6-6.3,0.9-9.5,0.8c-5.1,0-9.3-0.8-12.8-2.3c-3.3-1.4-6.1-3.6-8.4-6.3c-2.1-2.6-3.7-5.5-4.6-8.7c-0.9-3.1-1.4-6.4-1.4-9.7
			c0-3.6,0.5-7.1,1.7-10.6c1.1-3.3,2.7-6.4,5-9.1c2.2-2.7,4.9-4.8,8.1-6.3c3.5-1.6,7.3-2.4,11.1-2.3c3.5-0.1,7.1,0.6,10.3,2.1
			c2.7,1.3,5.2,3.1,7,5.5c1.7,2.3,3.1,4.8,4,7.6c0.9,2.7,1.3,5.4,1.3,8.1c0,1.6-0.1,3-0.1,4.3c-0.1,1.3-0.2,2.2-0.3,2.8
			c-0.1,0.5-0.5,0.9-0.9,0.9c-0.4,0-1.1,0.1-2.2,0.1c-1.1,0.1-2.3,0.2-3.9,0.2C157.5,113,155.9,113,154.1,113z M133,102.6h14.1
			c1.7,0,3,0,3.8-0.1c0.5,0,1.1-0.1,1.5-0.1v-0.7c0-0.9-0.1-1.7-0.4-2.5c-1.2-3.7-4.7-6.3-8.7-6.1c-3.7-0.2-7.1,1.7-8.9,5.1
			C133.7,99.6,133.2,101,133,102.6z"/>
	</g>
</g>
</svg>
