<?xml version="1.0" encoding="utf-8"?>
<!-- Generator: Adobe Illustrator 26.0.1, SVG Export Plug-In . SVG Version: 6.00 Build 0)  -->
<svg version="1.1" id="Layer_1" xmlns="http://www.w3.org/2000/svg" xmlns:xlink="http://www.w3.org/1999/xlink" x="0px" y="0px"
	 viewBox="0 0 224.8 175.5" style="enable-background:new 0 0 224.8 175.5;" xml:space="preserve">
<style type="text/css">
	.st0{fill:url(#rect10_00000079443911504532677720000005778324810661245314_);}
	.st1{opacity:0.3096;enable-background:new    ;}
	.st2{fill:url(#rect851_00000013879047409733605840000011522867143773673382_);}
	.st3{fill:url(#rect851-3_00000091736143943975907900000013678284335573512343_);}
	.st4{fill:#FFFFFF;}
</style>
<g id="svg8" xmlns:cc="http://creativecommons.org/ns#" xmlns:dc="http://purl.org/dc/elements/1.1/" xmlns:inkscape="http://www.inkscape.org/namespaces/inkscape" xmlns:rdf="http://www.w3.org/1999/02/22-rdf-syntax-ns#" xmlns:sodipodi="http://sodipodi.sourceforge.net/DTD/sodipodi-0.dtd" xmlns:svg="http://www.w3.org/2000/svg">
	<defs>
		
			<inkscape:path-effect  effect="bounding_box" id="path-effect1893" is_visible="true" linkedpath="" lpeversion="1" visualbounds="true">
			</inkscape:path-effect>
		
			<inkscape:path-effect  apply_no_radius="true" apply_with_radius="true" chamfer_steps="1" effect="fillet_chamfer" flexible="false" hide_knots="false" id="path-effect1331" is_visible="true" lpeversion="1" method="arc" mode="F" only_selected="false" radius="8" satellites_param="F,0,0,1,0,2.1166667,0,1 @ F,0,0,1,0,2.1166667,0,1 @ F,0,0,1,0,2.1166667,0,1 @ F,0,0,1,0,2.1166667,0,1" unit="px" use_knot_distance="true">
			</inkscape:path-effect>
		
			<inkscape:path-effect  apply_no_radius="true" apply_with_radius="true" chamfer_steps="1" effect="fillet_chamfer" flexible="false" hide_knots="false" id="path-effect24" is_visible="true" lpeversion="1" method="auto" mode="F" only_selected="false" radius="16" satellites_param="F,0,0,1,0,4.2333333,0,1 @ F,0,0,1,0,0,0,1 @ F,0,0,1,0,4.2333333,0,1 @ F,0,0,1,0,4.2333333,0,1" unit="px" use_knot_distance="true">
			</inkscape:path-effect>
		
			<inkscape:path-effect  apply_no_radius="true" apply_with_radius="true" chamfer_steps="1" effect="fillet_chamfer" flexible="false" hide_knots="false" id="path-effect22" is_visible="true" lpeversion="1" method="auto" mode="F" only_selected="false" radius="16" satellites_param="F,0,0,1,0,0,0,1 @ F,0,0,1,0,4.2333333,0,1 @ F,0,0,1,0,0,0,1 @ F,0,0,1,0,0,0,1" unit="px" use_knot_distance="true">
			</inkscape:path-effect>
		
			<inkscape:path-effect  apply_no_radius="true" apply_with_radius="true" chamfer_steps="1" effect="fillet_chamfer" flexible="false" hide_knots="false" id="path-effect21" is_visible="true" lpeversion="1" method="auto" mode="F" only_selected="false" radius="16" satellites_param="F,0,0,1,0,0,0,1 @ F,0,0,1,0,4.2333333,0,1 @ F,0,0,1,0,4.2333333,0,1 @ F,0,0,1,0,4.2333333,0,1" unit="px" use_knot_distance="true">
			</inkscape:path-effect>
		
			<inkscape:path-effect  apply_no_radius="true" apply_with_radius="true" chamfer_steps="1" effect="fillet_chamfer" flexible="false" hide_knots="false" id="path-effect19" is_visible="true" lpeversion="1" method="auto" mode="F" only_selected="false" radius="16" satellites_param="F,0,0,1,0,4.2333333,0,1 @ F,0,0,1,0,0,0,1 @ F,0,0,1,0,0,0,1 @ F,0,0,1,0,0,0,1" unit="px" use_knot_distance="true">
			</inkscape:path-effect>
	</defs>
	
		<sodipodi:namedview  bordercolor="#666666" borderopacity="1.0" id="base" inkscape:current-layer="layer1" inkscape:cx="130.00668" inkscape:cy="101.16213" inkscape:document-rotation="0" inkscape:document-units="mm" inkscape:pageopacity="0.0" inkscape:pageshadow="2" inkscape:window-height="1024" inkscape:window-maximized="0" inkscape:window-width="1212" inkscape:window-x="1675" inkscape:window-y="0" inkscape:zoom="2" pagecolor="#ffffff" showgrid="false">
		</sodipodi:namedview>
	<g id="layer1" transform="translate(-41.064705,-208.49026)" inkscape:groupmode="layer" inkscape:label="Ebene 1">
		
			<linearGradient id="rect10_00000144299609257234741250000011269486526852743093_" gradientUnits="userSpaceOnUse" x1="235.6294" y1="642.5" x2="235.6294" y2="818" gradientTransform="matrix(1 0 0 1 -82.1294 -434)">
			<stop  offset="0.4" style="stop-color:#A9BDD3"/>
			<stop  offset="0.6" style="stop-color:#000102"/>
		</linearGradient>
		
			<path id="rect10" sodipodi:nodetypes="scccscccccccs" style="fill:url(#rect10_00000144299609257234741250000011269486526852743093_);" d="
			M53.1,208.5c-6.6,0-12,5.4-12,12v11.8V372c0,6.6,5.4,12,12,12h200.8c6.6,0,12-5.4,12-12V244.3c0-6.6-5.4-12-12-12H141.5
			c0,0-11.4-15.7-16.3-19.3c-4.9-3.6-10.7-4.5-10.7-4.5H53.1z"/>
		<g id="rect873" inkscape:path-effect="#path-effect1331" sodipodi:type="rect" class="st1">
			<path d="M54.3,248.6h79.3c4.8,0,8.6,5.2,8.6,11.6l0,0v6.5c0,6.4-3.9,11.6-8.6,11.6H54.3c-4.8,0-8.6-5.2-8.6-11.6v-6.5
				C45.6,253.8,49.5,248.6,54.3,248.6L54.3,248.6L54.3,248.6z"/>
		</g>
		
			<linearGradient id="rect851_00000054228536296691540140000003751104531369632702_" gradientUnits="userSpaceOnUse" x1="-385.2188" y1="129.7851" x2="-305.9131" y2="129.7851" gradientTransform="matrix(2.8346 0 0 -2.8316 1133.0411 675.9994)">
			<stop  offset="0" style="stop-color:#001635"/>
			<stop  offset="1" style="stop-color:#000B1D"/>
		</linearGradient>
		<path id="rect851" style="fill:url(#rect851_00000054228536296691540140000003751104531369632702_);" d="M141.2,236.3v11.9h-28
			C127.1,248.2,130.8,244.1,141.2,236.3z M141.2,236.3h112.6c6.6,0,12,5.3,12,11.9H141.2V236.3z M53.1,248.2h212.8v120.5
			c0,6.6-5.4,12-12,12l0,0H53.1c-6.6,0-12-5.4-12-12l0,0V260.2C41.1,253.6,46.4,248.2,53.1,248.2L53.1,248.2L53.1,248.2z"/>
		
			<linearGradient id="rect851-3_00000147204572669726879590000004231941912663277213_" gradientUnits="userSpaceOnUse" x1="-352.4643" y1="150.2" x2="-337.1555" y2="103.9029" gradientTransform="matrix(2.8346 0 0 -2.8346 1132.8916 677.1752)">
			<stop  offset="0" style="stop-color:#001635;stop-opacity:0.4"/>
			<stop  offset="1" style="stop-color:#000B1D"/>
		</linearGradient>
		
			<path id="rect851-3" sodipodi:nodetypes="cccccccccccsccssc" style="fill:url(#rect851-3_00000147204572669726879590000004231941912663277213_);" d="
			M142.6,241.1V253h-28C128.5,252.9,132.2,248.9,142.6,241.1z M142.6,241.1h111.2c6.6,0,12,5.3,12,11.9H142.6V241.1z M53.1,253
			h212.8v115.7c0,6.6-5.4,12-12,12H53.1c-6.6,0-12-5.4-12-12V265C41.1,258.3,46.4,253,53.1,253z"/>
	</g>
</g>
<g>
	<path class="st4" d="M65.5,134.9l-0.1-68.1c0-0.7,0.2-1,0.7-1.1c1.2-0.1,3.1-0.1,5.6-0.1c2.5-0.1,4.9-0.1,7.9-0.1
		c2.9-0.1,5.6-0.1,8.1-0.1c5.9,0,10.7,0.4,14.1,1.7c3.5,1.3,6.1,2.9,8,4.9c1.8,1.7,3.1,3.9,3.9,6.2c0.6,1.9,0.9,3.9,0.9,5.9
		c0,2.1-0.5,4.3-1.3,6.3c-0.6,1.7-1.5,3.2-2.6,4.5c-0.8,1.1-1.8,1.9-2.9,2.7c1.5,0.8,2.9,1.8,4.3,2.9c1.7,1.5,3.1,3.3,4,5.3
		c1.3,2.5,1.9,5.3,1.9,8.1c0,4.1-1.3,8.2-3.7,11.5c-2.4,3.3-5.8,5.9-10.3,7.7c-5.1,2-10.5,3-16.1,2.9h-7.1c-2.3,0-4.1,0-6.1-0.1
		c-1.9-0.1-3.5-0.1-4.9-0.1s-2.6-0.1-3.6-0.1C65.7,135.7,65.5,135.4,65.5,134.9z M80,78L80,92.9h7c1.9,0,3.8,0.1,5.7,0.1
		c1.3,0,2.7,0.1,4,0.4c0.9-0.8,1.7-1.8,2.3-2.9c0.7-1.3,1.1-2.7,1.1-4.1c0-1.7-0.5-3.5-1.6-4.9c-1.1-1.3-2.5-2.3-4-2.7
		c-2.2-0.7-4.5-0.9-6.8-0.9h-3.1c-0.9,0-1.5,0-2.3,0.1C81.6,77.9,80.8,78,80,78z M80,105.3v17.9c1.2,0.1,2.1,0.1,3.4,0.1
		c1.2,0.1,2.7,0.1,4.4,0.1c2.6,0.1,5.3-0.3,7.8-0.9c1.9-0.5,3.7-1.5,5.1-3c1.3-1.4,2-3.2,2.1-5.1c-0.1-1.8-0.7-3.6-1.8-5.1
		c-0.9-1.4-2.7-2.6-5.1-3.3c-1-0.3-1.9-0.4-2.9-0.5c-1.3-0.1-2.6-0.2-3.9-0.2L80,105.3z"/>
	<path class="st4" d="M127.6,82.1h11.7c0.7,0,1.2,0.5,1.4,1.1c0.3,0.5,0.5,1,0.5,1.5c0.1,0.7,0.3,1.4,0.3,2.1
		c0.1,0.7,0.1,1.8,0.1,2.7c2-2.4,4.4-4.5,7.1-6c2.9-1.6,5.9-2,9.7-2c0.5-0.1,0.9,0.3,0.9,0.7c0,0.1,0,0.1,0,0.3v12.8
		c0,0.5-0.3,0.7-1.1,0.7c-2.3-0.1-4.5,0-6.8,0.5c-1.9,0.4-3.8,1-5.6,1.8c-1.5,0.6-2.8,1.4-3.9,2.5v33.8c0,0.7-0.3,0.9-0.9,0.9h-12.7
		c-0.5,0.1-1-0.3-1.1-0.8c0-0.1,0-0.2,0-0.3V97.7c0-1.6,0-3.3-0.1-5c-0.1-1.7-0.1-3.5-0.1-5.2c-0.1-1.5-0.2-3.1-0.4-4.7
		c-0.1-0.3,0.1-0.7,0.5-0.7C127.4,82.1,127.4,82.1,127.6,82.1z"/>
</g>
</svg>
