<?xml version="1.0" encoding="utf-8"?>
<!-- Generator: Adobe Illustrator 26.0.1, SVG Export Plug-In . SVG Version: 6.00 Build 0)  -->
<svg version="1.1" id="Layer_1" xmlns="http://www.w3.org/2000/svg" xmlns:xlink="http://www.w3.org/1999/xlink" x="0px" y="0px"
	 viewBox="0 0 224.8 175.5" style="enable-background:new 0 0 224.8 175.5;" xml:space="preserve">
<style type="text/css">
	.st0{fill:url(#rect10_00000125600565741972246270000000749382294485910445_);}
	.st1{opacity:0.3096;enable-background:new    ;}
	.st2{fill:url(#rect851_00000181799137640735224380000011407248787247703461_);}
	.st3{fill:url(#rect851-3_00000172437908280511548880000011457497520207357848_);}
	.st4{fill:#31A8FF;}
</style>
<g id="svg8" xmlns:cc="http://creativecommons.org/ns#" xmlns:dc="http://purl.org/dc/elements/1.1/" xmlns:inkscape="http://www.inkscape.org/namespaces/inkscape" xmlns:rdf="http://www.w3.org/1999/02/22-rdf-syntax-ns#" xmlns:sodipodi="http://sodipodi.sourceforge.net/DTD/sodipodi-0.dtd" xmlns:svg="http://www.w3.org/2000/svg">
	<defs>
		
			<inkscape:path-effect  effect="bounding_box" id="path-effect1893" is_visible="true" linkedpath="" lpeversion="1" visualbounds="true">
			</inkscape:path-effect>
		
			<inkscape:path-effect  apply_no_radius="true" apply_with_radius="true" chamfer_steps="1" effect="fillet_chamfer" flexible="false" hide_knots="false" id="path-effect1331" is_visible="true" lpeversion="1" method="arc" mode="F" only_selected="false" radius="8" satellites_param="F,0,0,1,0,2.1166667,0,1 @ F,0,0,1,0,2.1166667,0,1 @ F,0,0,1,0,2.1166667,0,1 @ F,0,0,1,0,2.1166667,0,1" unit="px" use_knot_distance="true">
			</inkscape:path-effect>
		
			<inkscape:path-effect  apply_no_radius="true" apply_with_radius="true" chamfer_steps="1" effect="fillet_chamfer" flexible="false" hide_knots="false" id="path-effect24" is_visible="true" lpeversion="1" method="auto" mode="F" only_selected="false" radius="16" satellites_param="F,0,0,1,0,4.2333333,0,1 @ F,0,0,1,0,0,0,1 @ F,0,0,1,0,4.2333333,0,1 @ F,0,0,1,0,4.2333333,0,1" unit="px" use_knot_distance="true">
			</inkscape:path-effect>
		
			<inkscape:path-effect  apply_no_radius="true" apply_with_radius="true" chamfer_steps="1" effect="fillet_chamfer" flexible="false" hide_knots="false" id="path-effect22" is_visible="true" lpeversion="1" method="auto" mode="F" only_selected="false" radius="16" satellites_param="F,0,0,1,0,0,0,1 @ F,0,0,1,0,4.2333333,0,1 @ F,0,0,1,0,0,0,1 @ F,0,0,1,0,0,0,1" unit="px" use_knot_distance="true">
			</inkscape:path-effect>
		
			<inkscape:path-effect  apply_no_radius="true" apply_with_radius="true" chamfer_steps="1" effect="fillet_chamfer" flexible="false" hide_knots="false" id="path-effect21" is_visible="true" lpeversion="1" method="auto" mode="F" only_selected="false" radius="16" satellites_param="F,0,0,1,0,0,0,1 @ F,0,0,1,0,4.2333333,0,1 @ F,0,0,1,0,4.2333333,0,1 @ F,0,0,1,0,4.2333333,0,1" unit="px" use_knot_distance="true">
			</inkscape:path-effect>
		
			<inkscape:path-effect  apply_no_radius="true" apply_with_radius="true" chamfer_steps="1" effect="fillet_chamfer" flexible="false" hide_knots="false" id="path-effect19" is_visible="true" lpeversion="1" method="auto" mode="F" only_selected="false" radius="16" satellites_param="F,0,0,1,0,4.2333333,0,1 @ F,0,0,1,0,0,0,1 @ F,0,0,1,0,0,0,1 @ F,0,0,1,0,0,0,1" unit="px" use_knot_distance="true">
			</inkscape:path-effect>
	</defs>
	
		<sodipodi:namedview  bordercolor="#666666" borderopacity="1.0" id="base" inkscape:current-layer="layer1" inkscape:cx="130.00668" inkscape:cy="101.16213" inkscape:document-rotation="0" inkscape:document-units="mm" inkscape:pageopacity="0.0" inkscape:pageshadow="2" inkscape:window-height="1024" inkscape:window-maximized="0" inkscape:window-width="1212" inkscape:window-x="1675" inkscape:window-y="0" inkscape:zoom="2" pagecolor="#ffffff" showgrid="false">
		</sodipodi:namedview>
	<g id="layer1" transform="translate(-41.064705,-208.49026)" inkscape:groupmode="layer" inkscape:label="Ebene 1">
		
			<linearGradient id="rect10_00000175297659784099533340000009689111961992992419_" gradientUnits="userSpaceOnUse" x1="194.5647" y1="177.9903" x2="194.5647" y2="2.4903" gradientTransform="matrix(1 0 0 -1 -41.0647 386.4903)">
			<stop  offset="0.4" style="stop-color:#31A8FF"/>
			<stop  offset="0.6" style="stop-color:#00111C"/>
		</linearGradient>
		
			<path id="rect10" sodipodi:nodetypes="scccscccccccs" style="fill:url(#rect10_00000175297659784099533340000009689111961992992419_);" d="
			M53.1,208.5c-6.6,0-12,5.4-12,12v11.8V372c0,6.6,5.4,12,12,12h200.8c6.6,0,12-5.4,12-12V244.3c0-6.6-5.4-12-12-12H141.5
			c0,0-11.4-15.7-16.3-19.3c-4.9-3.6-10.7-4.5-10.7-4.5H53.1z"/>
		<g id="rect873" inkscape:path-effect="#path-effect1331" sodipodi:type="rect" class="st1">
			<path d="M54.3,248.6h79.3c4.8,0,8.6,5.2,8.6,11.6l0,0v6.5c0,6.4-3.9,11.6-8.6,11.6H54.3c-4.8,0-8.6-5.2-8.6-11.6v-6.5
				C45.6,253.8,49.5,248.6,54.3,248.6L54.3,248.6L54.3,248.6z"/>
		</g>
		
			<linearGradient id="rect851_00000143609740641388918200000000727356443466641548_" gradientUnits="userSpaceOnUse" x1="-243.1212" y1="397.0701" x2="-163.8155" y2="397.0701" gradientTransform="matrix(2.8346 0 0 2.8316 730.2514 -815.8436)">
			<stop  offset="0" style="stop-color:#002F4F"/>
			<stop  offset="1" style="stop-color:#001E36"/>
		</linearGradient>
		<path id="rect851" style="fill:url(#rect851_00000143609740641388918200000000727356443466641548_);" d="M141.2,236.3v11.9h-28
			C127.1,248.2,130.8,244.1,141.2,236.3z M141.2,236.3h112.6c6.6,0,12,5.3,12,11.9H141.2V236.3z M53.1,248.2h212.8v120.5
			c0,6.6-5.4,12-12,12l0,0H53.1c-6.6,0-12-5.4-12-12l0,0V260.2C41.1,253.6,46.4,248.2,53.1,248.2L53.1,248.2L53.1,248.2z"/>
		
			<linearGradient id="rect851-3_00000101102392323456329130000004004974395022935742_" gradientUnits="userSpaceOnUse" x1="-210.3667" y1="376.7363" x2="-195.0579" y2="423.0334" gradientTransform="matrix(2.8346 0 0 2.8346 730.1018 -816.4783)">
			<stop  offset="0" style="stop-color:#002F4F;stop-opacity:0.4"/>
			<stop  offset="1" style="stop-color:#001E36"/>
		</linearGradient>
		
			<path id="rect851-3" sodipodi:nodetypes="cccccccccccsccssc" style="fill:url(#rect851-3_00000101102392323456329130000004004974395022935742_);" d="
			M142.6,241.1V253h-28C128.5,252.9,132.2,248.9,142.6,241.1z M142.6,241.1h111.2c6.6,0,12,5.3,12,11.9H142.6V241.1z M53.1,253
			h212.8v115.7c0,6.6-5.4,12-12,12H53.1c-6.6,0-12-5.4-12-12V265C41.1,258.3,46.4,253,53.1,253z"/>
	</g>
</g>
<g id="Outlined_Mnemonics_Logos_12_">
	<g id="Fr">
		<path class="st4" d="M85.2,108.8V135c0.1,0.4-0.2,0.8-0.7,0.9c-0.1,0-0.1,0-0.2,0H71.1c-0.2,0-0.5-0.1-0.6-0.2
			c-0.1-0.2-0.2-0.5-0.1-0.7V66.4c0-1,0.3-1.5,0.7-1.5h42.5c0.3,0,0.5,0,0.7,0.1c0.1,0.1,0.3,0.6,0.3,1.5l1.2,11.7
			c0.1,0.2,0,0.5-0.1,0.6c-0.2,0.2-0.5,0.3-0.7,0.3H85.2v16.3H112c0.7,0,0.9,0.3,0.9,0.7v11.8c0.1,0.4-0.2,0.8-0.7,0.9
			c-0.1,0-0.1,0-0.2,0L85.2,108.8z"/>
		<path class="st4" d="M122.4,82.6H134c0.7,0,1.2,0.5,1.4,1.1c0.3,0.5,0.5,1,0.5,1.5c0.1,0.7,0.3,1.4,0.3,2.1
			c0.1,0.7,0.1,1.5,0.1,2.4c2-2.3,4.4-4.3,7.1-5.7c3.1-1.7,6.5-2.5,9.9-2.4c0.5-0.1,0.9,0.3,0.9,0.7c0,0.1,0,0.1,0,0.3v13
			c0,0.5-0.3,0.7-1.1,0.7c-4.3-0.3-8.7,0.5-12.6,2.3c-1.3,0.6-2.6,1.4-3.6,2.5v34c0,0.7-0.3,0.9-0.9,0.9h-12.9
			c-0.5,0.1-1-0.3-1.1-0.8c0-0.1,0-0.2,0-0.3V97.9c0-1.6,0-3.3-0.1-5c-0.1-1.7-0.1-3.5-0.1-5.2c-0.1-1.5-0.2-2.9-0.4-4.4
			c-0.1-0.3,0.1-0.7,0.5-0.7C122.2,82.5,122.3,82.5,122.4,82.6L122.4,82.6z"/>
	</g>
</g>
</svg>
