<?xml version="1.0" encoding="utf-8"?>
<!-- Generator: Adobe Illustrator 26.0.1, SVG Export Plug-In . SVG Version: 6.00 Build 0)  -->
<svg version="1.1" id="Layer_1" xmlns="http://www.w3.org/2000/svg" xmlns:xlink="http://www.w3.org/1999/xlink" x="0px" y="0px"
	 viewBox="0 0 224.8 175.5" style="enable-background:new 0 0 224.8 175.5;" xml:space="preserve">
<style type="text/css">
	.st0{fill:url(#rect10_00000164500226471466236410000006502032833197094061_);}
	.st1{opacity:0.3096;enable-background:new    ;}
	.st2{fill:url(#rect851_00000061468919409039568420000001686451107704771473_);}
	.st3{fill:url(#rect851-3_00000113321761154853085800000006900115473992544427_);}
	.st4{fill:#31A8FF;}
</style>
<g id="svg8" xmlns:cc="http://creativecommons.org/ns#" xmlns:dc="http://purl.org/dc/elements/1.1/" xmlns:inkscape="http://www.inkscape.org/namespaces/inkscape" xmlns:rdf="http://www.w3.org/1999/02/22-rdf-syntax-ns#" xmlns:sodipodi="http://sodipodi.sourceforge.net/DTD/sodipodi-0.dtd" xmlns:svg="http://www.w3.org/2000/svg">
	<defs>
		
			<inkscape:path-effect  effect="bounding_box" id="path-effect1893" is_visible="true" linkedpath="" lpeversion="1" visualbounds="true">
			</inkscape:path-effect>
		
			<inkscape:path-effect  apply_no_radius="true" apply_with_radius="true" chamfer_steps="1" effect="fillet_chamfer" flexible="false" hide_knots="false" id="path-effect1331" is_visible="true" lpeversion="1" method="arc" mode="F" only_selected="false" radius="8" satellites_param="F,0,0,1,0,2.1166667,0,1 @ F,0,0,1,0,2.1166667,0,1 @ F,0,0,1,0,2.1166667,0,1 @ F,0,0,1,0,2.1166667,0,1" unit="px" use_knot_distance="true">
			</inkscape:path-effect>
		
			<inkscape:path-effect  apply_no_radius="true" apply_with_radius="true" chamfer_steps="1" effect="fillet_chamfer" flexible="false" hide_knots="false" id="path-effect24" is_visible="true" lpeversion="1" method="auto" mode="F" only_selected="false" radius="16" satellites_param="F,0,0,1,0,4.2333333,0,1 @ F,0,0,1,0,0,0,1 @ F,0,0,1,0,4.2333333,0,1 @ F,0,0,1,0,4.2333333,0,1" unit="px" use_knot_distance="true">
			</inkscape:path-effect>
		
			<inkscape:path-effect  apply_no_radius="true" apply_with_radius="true" chamfer_steps="1" effect="fillet_chamfer" flexible="false" hide_knots="false" id="path-effect22" is_visible="true" lpeversion="1" method="auto" mode="F" only_selected="false" radius="16" satellites_param="F,0,0,1,0,0,0,1 @ F,0,0,1,0,4.2333333,0,1 @ F,0,0,1,0,0,0,1 @ F,0,0,1,0,0,0,1" unit="px" use_knot_distance="true">
			</inkscape:path-effect>
		
			<inkscape:path-effect  apply_no_radius="true" apply_with_radius="true" chamfer_steps="1" effect="fillet_chamfer" flexible="false" hide_knots="false" id="path-effect21" is_visible="true" lpeversion="1" method="auto" mode="F" only_selected="false" radius="16" satellites_param="F,0,0,1,0,0,0,1 @ F,0,0,1,0,4.2333333,0,1 @ F,0,0,1,0,4.2333333,0,1 @ F,0,0,1,0,4.2333333,0,1" unit="px" use_knot_distance="true">
			</inkscape:path-effect>
		
			<inkscape:path-effect  apply_no_radius="true" apply_with_radius="true" chamfer_steps="1" effect="fillet_chamfer" flexible="false" hide_knots="false" id="path-effect19" is_visible="true" lpeversion="1" method="auto" mode="F" only_selected="false" radius="16" satellites_param="F,0,0,1,0,4.2333333,0,1 @ F,0,0,1,0,0,0,1 @ F,0,0,1,0,0,0,1 @ F,0,0,1,0,0,0,1" unit="px" use_knot_distance="true">
			</inkscape:path-effect>
	</defs>
	
		<sodipodi:namedview  bordercolor="#666666" borderopacity="1.0" id="base" inkscape:current-layer="layer1" inkscape:cx="130.00668" inkscape:cy="101.16213" inkscape:document-rotation="0" inkscape:document-units="mm" inkscape:pageopacity="0.0" inkscape:pageshadow="2" inkscape:window-height="1024" inkscape:window-maximized="0" inkscape:window-width="1212" inkscape:window-x="1675" inkscape:window-y="0" inkscape:zoom="2" pagecolor="#ffffff" showgrid="false">
		</sodipodi:namedview>
	<g id="layer1" transform="translate(-41.064705,-208.49026)" inkscape:groupmode="layer" inkscape:label="Ebene 1">
		
			<linearGradient id="rect10_00000051355799393126202090000017861215812833318790_" gradientUnits="userSpaceOnUse" x1="235.6294" y1="642.5" x2="235.6294" y2="818" gradientTransform="matrix(1 0 0 1 -82.1294 -434)">
			<stop  offset="0.4" style="stop-color:#31A8FF"/>
			<stop  offset="0.6" style="stop-color:#00111C"/>
		</linearGradient>
		
			<path id="rect10" sodipodi:nodetypes="scccscccccccs" style="fill:url(#rect10_00000051355799393126202090000017861215812833318790_);" d="
			M53.1,208.5c-6.6,0-12,5.4-12,12v11.8V372c0,6.6,5.4,12,12,12h200.8c6.6,0,12-5.4,12-12V244.3c0-6.6-5.4-12-12-12H141.5
			c0,0-11.4-15.7-16.3-19.3c-4.9-3.6-10.7-4.5-10.7-4.5H53.1z"/>
		<g id="rect873" inkscape:path-effect="#path-effect1331" sodipodi:type="rect" class="st1">
			<path d="M54.3,248.6h79.3c4.8,0,8.6,5.2,8.6,11.6l0,0v6.5c0,6.4-3.9,11.6-8.6,11.6H54.3c-4.8,0-8.6-5.2-8.6-11.6v-6.5
				C45.6,253.8,49.5,248.6,54.3,248.6L54.3,248.6L54.3,248.6z"/>
		</g>
		
			<linearGradient id="rect851_00000067226914596028529430000009844059803875034779_" gradientUnits="userSpaceOnUse" x1="-385.2188" y1="129.7851" x2="-305.9131" y2="129.7851" gradientTransform="matrix(2.8346 0 0 -2.8316 1133.0411 675.9994)">
			<stop  offset="0" style="stop-color:#002F4F"/>
			<stop  offset="1" style="stop-color:#001E36"/>
		</linearGradient>
		<path id="rect851" style="fill:url(#rect851_00000067226914596028529430000009844059803875034779_);" d="M141.2,236.3v11.9h-28
			C127.1,248.2,130.8,244.1,141.2,236.3z M141.2,236.3h112.6c6.6,0,12,5.3,12,11.9H141.2V236.3z M53.1,248.2h212.8v120.5
			c0,6.6-5.4,12-12,12l0,0H53.1c-6.6,0-12-5.4-12-12l0,0V260.2C41.1,253.6,46.4,248.2,53.1,248.2L53.1,248.2L53.1,248.2z"/>
		
			<linearGradient id="rect851-3_00000158012611049622254860000004841246095229411259_" gradientUnits="userSpaceOnUse" x1="-352.4643" y1="150.2" x2="-337.1555" y2="103.9029" gradientTransform="matrix(2.8346 0 0 -2.8346 1132.8916 677.1752)">
			<stop  offset="0" style="stop-color:#002F4F;stop-opacity:0.4"/>
			<stop  offset="1" style="stop-color:#001E36"/>
		</linearGradient>
		
			<path id="rect851-3" sodipodi:nodetypes="cccccccccccsccssc" style="fill:url(#rect851-3_00000158012611049622254860000004841246095229411259_);" d="
			M142.6,241.1V253h-28C128.5,252.9,132.2,248.9,142.6,241.1z M142.6,241.1h111.2c6.6,0,12,5.3,12,11.9H142.6V241.1z M53.1,253
			h212.8v115.7c0,6.6-5.4,12-12,12H53.1c-6.6,0-12-5.4-12-12V265C41.1,258.3,46.4,253,53.1,253z"/>
	</g>
</g>
<g id="Outlined_Mnemonics_Logos_3_">
	<g id="LrC">
		<path class="st4" d="M88.7,135.8H50.7c-0.7,0-0.9-0.4-0.9-1.2V66.5c0-0.7,0.3-0.9,0.9-0.9h11.8c0.5,0,0.7,0.3,0.7,0.7v56h27.7
			c0.6,0,0.8,0.3,0.7,0.9l-1.7,11.6c-0.1,0.4-0.2,0.7-0.4,0.8C89.1,135.7,88.9,135.8,88.7,135.8z"/>
		<path class="st4" d="M98.3,82.5h10.5c0.6,0,1,0.3,1.3,1.1c0.2,0.5,0.4,1,0.5,1.5c0.1,0.7,0.2,1.4,0.3,2.1c0.1,0.7,0.1,1.5,0.1,2.4
			c1.7-2.3,3.9-4.3,6.4-5.7c2.7-1.6,5.8-2.5,8.9-2.4c0.6,0,0.9,0.3,0.9,0.9v13c0,0.5-0.3,0.7-0.9,0.7c-2.1-0.1-4.3,0-6.3,0.5
			c-1.7,0.4-3.4,1-5,1.8c-1.2,0.6-2.3,1.5-3.3,2.5v34c0,0.7-0.3,0.9-0.8,0.9H99.1c-0.7,0-0.9-0.3-0.9-1.1V97.7c0-1.6,0-3.3-0.1-5
			c0-1.7-0.1-3.5-0.1-5.2c-0.1-1.5-0.2-2.9-0.4-4.4c0-0.2,0-0.4,0.1-0.6C97.9,82.5,98.1,82.4,98.3,82.5z"/>
		<path class="st4" d="M174.3,72.6c-1.4-0.6-2.9-0.9-4.5-1.1c-2.3-0.3-4.5-0.4-6.8-0.4c-6.5,0-12.3,1.4-17,4.1
			c-4.7,2.7-8.5,6.8-11.1,11.7c-2.6,4.9-3.9,10.8-3.9,17.3c-0.1,3.9,0.5,7.9,1.5,11.7c0.9,3.3,2.3,6.3,4.3,9.1
			c1.8,2.6,4,4.8,6.5,6.6c2.5,1.8,5.4,3.2,8.5,4c3.1,0.9,6.5,1.3,9.7,1.3c2.3,0,4.6-0.1,6.9-0.5c1.9-0.2,3.7-0.7,5.4-1.3
			c0.7-0.3,1.1-1,1-1.8v-9.9c0.1-0.3-0.1-0.7-0.3-1c-0.2-0.1-0.5-0.3-1.1,0.1c-1.5,0.5-3.1,0.9-4.7,1.1c-1.9,0.2-3.9,0.3-5.8,0.3
			c-1.7,0-3.5-0.3-5.2-0.7c-1.8-0.5-3.5-1.2-5.1-2.1c-1.7-1-3.1-2.3-4.2-3.9c-1.3-1.7-2.3-3.7-2.9-5.7c-0.7-2.5-1.1-5.1-1.1-7.8
			c-0.1-3.7,0.7-7.3,2.2-10.7c1.4-2.9,3.5-5.3,6.3-7c2.9-1.7,6.3-2.6,9.7-2.5c2.1,0,4.2,0.1,6.3,0.5c1.7,0.3,3.3,0.8,4.8,1.6
			c0.3,0.1,0.6,0.1,0.9,0c0.3-0.3,0.5-0.6,0.4-1V74.2C175.1,73.5,174.9,72.9,174.3,72.6z"/>
	</g>
</g>
</svg>
