<?xml version="1.0" encoding="utf-8"?>
<!-- Generator: Adobe Illustrator 26.0.1, SVG Export Plug-In . SVG Version: 6.00 Build 0)  -->
<svg version="1.1" id="Layer_1" xmlns="http://www.w3.org/2000/svg" xmlns:xlink="http://www.w3.org/1999/xlink" x="0px" y="0px"
	 viewBox="0 0 224.8 175.5" style="enable-background:new 0 0 224.8 175.5;" xml:space="preserve">
<style type="text/css">
	.st0{fill:url(#rect10_00000121988073512771267130000004337068201584821143_);}
	.st1{opacity:0.3096;enable-background:new    ;}
	.st2{fill:url(#rect851_00000087404608916548512520000013591842964594408363_);}
	.st3{fill:url(#rect851-3_00000006703350983612334430000004748527766824314754_);}
	.st4{fill:#9999FF;}
</style>
<g id="svg8" xmlns:cc="http://creativecommons.org/ns#" xmlns:dc="http://purl.org/dc/elements/1.1/" xmlns:inkscape="http://www.inkscape.org/namespaces/inkscape" xmlns:rdf="http://www.w3.org/1999/02/22-rdf-syntax-ns#" xmlns:sodipodi="http://sodipodi.sourceforge.net/DTD/sodipodi-0.dtd" xmlns:svg="http://www.w3.org/2000/svg">
	<defs>
		
			<inkscape:path-effect  effect="bounding_box" id="path-effect1893" is_visible="true" linkedpath="" lpeversion="1" visualbounds="true">
			</inkscape:path-effect>
		
			<inkscape:path-effect  apply_no_radius="true" apply_with_radius="true" chamfer_steps="1" effect="fillet_chamfer" flexible="false" hide_knots="false" id="path-effect1331" is_visible="true" lpeversion="1" method="arc" mode="F" only_selected="false" radius="8" satellites_param="F,0,0,1,0,2.1166667,0,1 @ F,0,0,1,0,2.1166667,0,1 @ F,0,0,1,0,2.1166667,0,1 @ F,0,0,1,0,2.1166667,0,1" unit="px" use_knot_distance="true">
			</inkscape:path-effect>
		
			<inkscape:path-effect  apply_no_radius="true" apply_with_radius="true" chamfer_steps="1" effect="fillet_chamfer" flexible="false" hide_knots="false" id="path-effect24" is_visible="true" lpeversion="1" method="auto" mode="F" only_selected="false" radius="16" satellites_param="F,0,0,1,0,4.2333333,0,1 @ F,0,0,1,0,0,0,1 @ F,0,0,1,0,4.2333333,0,1 @ F,0,0,1,0,4.2333333,0,1" unit="px" use_knot_distance="true">
			</inkscape:path-effect>
		
			<inkscape:path-effect  apply_no_radius="true" apply_with_radius="true" chamfer_steps="1" effect="fillet_chamfer" flexible="false" hide_knots="false" id="path-effect22" is_visible="true" lpeversion="1" method="auto" mode="F" only_selected="false" radius="16" satellites_param="F,0,0,1,0,0,0,1 @ F,0,0,1,0,4.2333333,0,1 @ F,0,0,1,0,0,0,1 @ F,0,0,1,0,0,0,1" unit="px" use_knot_distance="true">
			</inkscape:path-effect>
		
			<inkscape:path-effect  apply_no_radius="true" apply_with_radius="true" chamfer_steps="1" effect="fillet_chamfer" flexible="false" hide_knots="false" id="path-effect21" is_visible="true" lpeversion="1" method="auto" mode="F" only_selected="false" radius="16" satellites_param="F,0,0,1,0,0,0,1 @ F,0,0,1,0,4.2333333,0,1 @ F,0,0,1,0,4.2333333,0,1 @ F,0,0,1,0,4.2333333,0,1" unit="px" use_knot_distance="true">
			</inkscape:path-effect>
		
			<inkscape:path-effect  apply_no_radius="true" apply_with_radius="true" chamfer_steps="1" effect="fillet_chamfer" flexible="false" hide_knots="false" id="path-effect19" is_visible="true" lpeversion="1" method="auto" mode="F" only_selected="false" radius="16" satellites_param="F,0,0,1,0,4.2333333,0,1 @ F,0,0,1,0,0,0,1 @ F,0,0,1,0,0,0,1 @ F,0,0,1,0,0,0,1" unit="px" use_knot_distance="true">
			</inkscape:path-effect>
	</defs>
	
		<sodipodi:namedview  bordercolor="#666666" borderopacity="1.0" id="base" inkscape:current-layer="layer1" inkscape:cx="130.00668" inkscape:cy="101.16213" inkscape:document-rotation="0" inkscape:document-units="mm" inkscape:pageopacity="0.0" inkscape:pageshadow="2" inkscape:window-height="1024" inkscape:window-maximized="0" inkscape:window-width="1212" inkscape:window-x="1675" inkscape:window-y="0" inkscape:zoom="2" pagecolor="#ffffff" showgrid="false">
		</sodipodi:namedview>
	<g id="layer1" transform="translate(-41.064705,-208.49026)" inkscape:groupmode="layer" inkscape:label="Ebene 1">
		
			<linearGradient id="rect10_00000176746233622501748120000012219706350973880232_" gradientUnits="userSpaceOnUse" x1="235.6294" y1="642.5" x2="235.6294" y2="818" gradientTransform="matrix(1 0 0 1 -82.1294 -434)">
			<stop  offset="0.4" style="stop-color:#9999FF"/>
			<stop  offset="0.6" style="stop-color:#000026"/>
		</linearGradient>
		
			<path id="rect10" sodipodi:nodetypes="scccscccccccs" style="fill:url(#rect10_00000176746233622501748120000012219706350973880232_);" d="
			M53.1,208.5c-6.6,0-12,5.4-12,12v11.8V372c0,6.6,5.4,12,12,12h200.8c6.6,0,12-5.4,12-12V244.3c0-6.6-5.4-12-12-12H141.5
			c0,0-11.4-15.7-16.3-19.3c-4.9-3.6-10.7-4.5-10.7-4.5H53.1z"/>
		<g id="rect873" inkscape:path-effect="#path-effect1331" sodipodi:type="rect" class="st1">
			<path d="M54.3,248.6h79.3c4.8,0,8.6,5.2,8.6,11.6l0,0v6.5c0,6.4-3.9,11.6-8.6,11.6H54.3c-4.8,0-8.6-5.2-8.6-11.6v-6.5
				C45.6,253.8,49.5,248.6,54.3,248.6L54.3,248.6L54.3,248.6z"/>
		</g>
		
			<linearGradient id="rect851_00000031199368496256999300000016747117873454197682_" gradientUnits="userSpaceOnUse" x1="-385.2188" y1="129.7851" x2="-305.9131" y2="129.7851" gradientTransform="matrix(2.8346 0 0 -2.8316 1133.0411 675.9994)">
			<stop  offset="0" style="stop-color:#000072"/>
			<stop  offset="1" style="stop-color:#00005B"/>
		</linearGradient>
		<path id="rect851" style="fill:url(#rect851_00000031199368496256999300000016747117873454197682_);" d="M141.2,236.3v11.9h-28
			C127.1,248.2,130.8,244.1,141.2,236.3z M141.2,236.3h112.6c6.6,0,12,5.3,12,11.9H141.2V236.3z M53.1,248.2h212.8v120.5
			c0,6.6-5.4,12-12,12l0,0H53.1c-6.6,0-12-5.4-12-12l0,0V260.2C41.1,253.6,46.4,248.2,53.1,248.2L53.1,248.2L53.1,248.2z"/>
		
			<linearGradient id="rect851-3_00000150799988288699720640000016468047023078720418_" gradientUnits="userSpaceOnUse" x1="-352.4643" y1="150.2" x2="-337.1555" y2="103.9029" gradientTransform="matrix(2.8346 0 0 -2.8346 1132.8916 677.1752)">
			<stop  offset="0" style="stop-color:#000072;stop-opacity:0.4"/>
			<stop  offset="1" style="stop-color:#00005B"/>
		</linearGradient>
		
			<path id="rect851-3" sodipodi:nodetypes="cccccccccccsccssc" style="fill:url(#rect851-3_00000150799988288699720640000016468047023078720418_);" d="
			M142.6,241.1V253h-28C128.5,252.9,132.2,248.9,142.6,241.1z M142.6,241.1h111.2c6.6,0,12,5.3,12,11.9H142.6V241.1z M53.1,253
			h212.8v115.7c0,6.6-5.4,12-12,12H53.1c-6.6,0-12-5.4-12-12V265C41.1,258.3,46.4,253,53.1,253z"/>
	</g>
</g>
<g id="Outlined_Mnemonics_Logos_14_">
	<g id="Me">
		<path class="st4" d="M160.8,113H140c0.3,2.1,1,4.2,2.2,6.1c1.2,1.8,2.9,3.1,4.8,4c2.7,1.2,5.6,1.8,8.6,1.8c2,0,4-0.1,5.9-0.5
			c2.1-0.4,4.2-1,6.2-1.8c0.4-0.3,0.5-0.1,0.5,0.5v10c0,0.3,0,0.5-0.2,0.8c-0.1,0.2-0.3,0.4-0.5,0.5c-2.2,1-4.5,1.8-6.9,2.3
			c-2.8,0.4-5.7,0.5-8.6,0.3c-4.3,0.1-8.6-0.7-12.6-2.3c-3.2-1.4-6-3.5-8.2-6.2c-2.1-2.5-3.6-5.5-4.5-8.6c-0.9-3.1-1.4-6.3-1.4-9.6
			c0-3.5,0.5-7.1,1.6-10.4c1.1-3.3,2.7-6.3,4.9-9c2.2-2.6,4.9-4.8,7.9-6.2c3.4-1.6,7.2-2.4,11-2.3c3.7-0.1,7.4,0.7,10.7,2.1
			c2.7,1.2,5.1,3.1,6.9,5.4c1.7,2.2,3.1,4.8,3.9,7.5c0.8,2.6,1.3,5.3,1.3,8c0,1.6-0.1,3-0.2,4.2c-0.1,0.8-0.2,1.5-0.4,2.2
			c-0.1,0.5-0.5,0.8-1,0.8c-0.4,0-1.1,0.1-2.2,0.2c-1,0.1-2.8,0.1-4.4,0.1C164.1,112.9,162.5,113,160.8,113z M140,104.6h13.8
			c1.7,0,2.9,0,3.8-0.1c0.5,0,1-0.1,1.5-0.2v-0.6c0.1-1.3,0-2.5-0.2-3.8c-1.2-3.7-4.7-6.2-8.6-6c-3.6-0.2-7.1,1.7-8.7,5
			C140.8,100.7,140.2,102.6,140,104.6z"/>
		<path class="st4" d="M54.8,68.1c0-0.4,0.4-0.7,0.8-0.6c0,0,0,0,0,0H74c0.5-0.1,1,0.3,1.1,0.7c0.5,1.8,1,3.2,1.7,5.7
			c0.7,2.6,1.4,5.4,2.2,8.5c0.8,3.1,1.6,6.3,2.4,9.5c0.8,3.2,1.6,6.4,2.4,9.5c0.8,3.1,1.4,5.9,2,8.5c0.5,2.6,1,4.7,1.3,6.4h0.1
			c0.3-1.5,0.7-3.5,1.4-5.9c0.7-2.5,1.4-5.2,2.3-8.3c0.9-3.1,1.8-6.2,2.7-9.5c0.9-3.2,1.8-6.4,2.7-9.6c0.9-3.2,1.7-6.1,2.5-8.8
			c0.8-2.7,1.4-4.1,1.9-5.9c0.1-0.4,0.5-0.8,0.9-0.7h18c0.4-0.1,0.8,0.2,0.9,0.7c0,0,0,0,0,0.1l2.4,66.2c0.1,0.2,0,0.5-0.1,0.7
			c-0.2,0.2-0.4,0.3-0.7,0.3h-13.1c-0.2,0-0.4,0-0.5-0.2c-0.2-0.2-0.2-0.4-0.2-0.6c0-3.6,0-6.9-0.1-10.9c0-3.9-0.1-7.9-0.2-11.9
			c-0.1-4-0.1-7.8,0-11.5c0.1-3.7,0.1-7,0.1-10.1c0-3.1,0-5.8,0.1-8.1c0-2.3,0-4,0.1-5.1H108c-0.4,1.8-0.9,4.1-1.6,6.9
			c-0.7,2.9-1.5,6.1-2.4,9.6c-0.9,3.6-1.9,7.2-2.9,11c-1,3.8-2,7.6-3,11.3c-1,3.7-1.9,7.2-2.8,10.5c-0.9,3.2-1.7,5.6-2.3,8.1
			c-0.1,0.5-0.6,0.9-1.1,0.8H80.6c-0.6,0.1-1.1-0.3-1.2-0.8c-0.6-2.5-1.3-4.9-2.1-8.1c-0.8-3.2-1.6-6.6-2.4-10.1
			c-0.8-3.5-1.7-7.1-2.6-10.8c-0.9-3.7-1.8-7.3-2.6-10.7c-0.8-3.5-1.5-6.7-2.2-9.7c-0.6-3-1.2-5.7-1.8-8h-0.2v8.4
			c0,3.2-0.1,6.8-0.2,10.7c-0.1,3.9-0.2,8-0.3,12.3c-0.1,4.3-0.2,8.7-0.4,13.2c-0.1,4.5-0.3,8.6-0.5,13c0,0.6-0.3,0.8-0.8,0.8H51.9
			c-0.2,0-0.5,0-0.7-0.2c-0.2-0.1-0.2-0.4-0.2-0.8L54.8,68.1z"/>
	</g>
</g>
</svg>
