<?xml version="1.0" encoding="utf-8"?>
<!-- Generator: Adobe Illustrator 26.0.1, SVG Export Plug-In . SVG Version: 6.00 Build 0)  -->
<svg version="1.1" id="Layer_1" xmlns="http://www.w3.org/2000/svg" xmlns:xlink="http://www.w3.org/1999/xlink" x="0px" y="0px"
	 viewBox="0 0 224.8 175.5" style="enable-background:new 0 0 224.8 175.5;" xml:space="preserve">
<style type="text/css">
	.st0{fill:url(#rect10_00000078025256023780675390000012998005547437445013_);}
	.st1{opacity:0.3096;enable-background:new    ;}
	.st2{fill:url(#rect851_00000149381233750743653000000017740730103002573497_);}
	.st3{fill:url(#rect851-3_00000139986841698060477250000002637666977597086366_);}
	.st4{fill:#FFFFFF;}
</style>
<g id="svg8" xmlns:cc="http://creativecommons.org/ns#" xmlns:dc="http://purl.org/dc/elements/1.1/" xmlns:inkscape="http://www.inkscape.org/namespaces/inkscape" xmlns:rdf="http://www.w3.org/1999/02/22-rdf-syntax-ns#" xmlns:sodipodi="http://sodipodi.sourceforge.net/DTD/sodipodi-0.dtd" xmlns:svg="http://www.w3.org/2000/svg">
	<defs>
		
			<inkscape:path-effect  effect="bounding_box" id="path-effect1893" is_visible="true" linkedpath="" lpeversion="1" visualbounds="true">
			</inkscape:path-effect>
		
			<inkscape:path-effect  apply_no_radius="true" apply_with_radius="true" chamfer_steps="1" effect="fillet_chamfer" flexible="false" hide_knots="false" id="path-effect1331" is_visible="true" lpeversion="1" method="arc" mode="F" only_selected="false" radius="8" satellites_param="F,0,0,1,0,2.1166667,0,1 @ F,0,0,1,0,2.1166667,0,1 @ F,0,0,1,0,2.1166667,0,1 @ F,0,0,1,0,2.1166667,0,1" unit="px" use_knot_distance="true">
			</inkscape:path-effect>
		
			<inkscape:path-effect  apply_no_radius="true" apply_with_radius="true" chamfer_steps="1" effect="fillet_chamfer" flexible="false" hide_knots="false" id="path-effect24" is_visible="true" lpeversion="1" method="auto" mode="F" only_selected="false" radius="16" satellites_param="F,0,0,1,0,4.2333333,0,1 @ F,0,0,1,0,0,0,1 @ F,0,0,1,0,4.2333333,0,1 @ F,0,0,1,0,4.2333333,0,1" unit="px" use_knot_distance="true">
			</inkscape:path-effect>
		
			<inkscape:path-effect  apply_no_radius="true" apply_with_radius="true" chamfer_steps="1" effect="fillet_chamfer" flexible="false" hide_knots="false" id="path-effect22" is_visible="true" lpeversion="1" method="auto" mode="F" only_selected="false" radius="16" satellites_param="F,0,0,1,0,0,0,1 @ F,0,0,1,0,4.2333333,0,1 @ F,0,0,1,0,0,0,1 @ F,0,0,1,0,0,0,1" unit="px" use_knot_distance="true">
			</inkscape:path-effect>
		
			<inkscape:path-effect  apply_no_radius="true" apply_with_radius="true" chamfer_steps="1" effect="fillet_chamfer" flexible="false" hide_knots="false" id="path-effect21" is_visible="true" lpeversion="1" method="auto" mode="F" only_selected="false" radius="16" satellites_param="F,0,0,1,0,0,0,1 @ F,0,0,1,0,4.2333333,0,1 @ F,0,0,1,0,4.2333333,0,1 @ F,0,0,1,0,4.2333333,0,1" unit="px" use_knot_distance="true">
			</inkscape:path-effect>
		
			<inkscape:path-effect  apply_no_radius="true" apply_with_radius="true" chamfer_steps="1" effect="fillet_chamfer" flexible="false" hide_knots="false" id="path-effect19" is_visible="true" lpeversion="1" method="auto" mode="F" only_selected="false" radius="16" satellites_param="F,0,0,1,0,4.2333333,0,1 @ F,0,0,1,0,0,0,1 @ F,0,0,1,0,0,0,1 @ F,0,0,1,0,0,0,1" unit="px" use_knot_distance="true">
			</inkscape:path-effect>
	</defs>
	
		<sodipodi:namedview  bordercolor="#666666" borderopacity="1.0" id="base" inkscape:current-layer="layer1" inkscape:cx="130.00668" inkscape:cy="101.16213" inkscape:document-rotation="0" inkscape:document-units="mm" inkscape:pageopacity="0.0" inkscape:pageshadow="2" inkscape:window-height="1024" inkscape:window-maximized="0" inkscape:window-width="1212" inkscape:window-x="1675" inkscape:window-y="0" inkscape:zoom="2" pagecolor="#ffffff" showgrid="false">
		</sodipodi:namedview>
	<g id="layer1" transform="translate(-41.064705,-208.49026)" inkscape:groupmode="layer" inkscape:label="Ebene 1">
		
			<linearGradient id="rect10_00000067931256730621613410000017533190611193116595_" gradientUnits="userSpaceOnUse" x1="276.6941" y1="-256.0097" x2="276.6941" y2="-431.5097" gradientTransform="matrix(1 0 0 -1 -123.1941 -47.5097)">
			<stop  offset="0.4" style="stop-color:#A9BDD3"/>
			<stop  offset="0.6" style="stop-color:#000102"/>
		</linearGradient>
		
			<path id="rect10" sodipodi:nodetypes="scccscccccccs" style="fill:url(#rect10_00000067931256730621613410000017533190611193116595_);" d="
			M53.1,208.5c-6.6,0-12,5.4-12,12v11.8V372c0,6.6,5.4,12,12,12h200.8c6.6,0,12-5.4,12-12V244.3c0-6.6-5.4-12-12-12H141.5
			c0,0-11.4-15.7-16.3-19.3c-4.9-3.6-10.7-4.5-10.7-4.5H53.1z"/>
		<g id="rect873" inkscape:path-effect="#path-effect1331" sodipodi:type="rect" class="st1">
			<path d="M54.3,248.6h79.3c4.8,0,8.6,5.2,8.6,11.6l0,0v6.5c0,6.4-3.9,11.6-8.6,11.6H54.3c-4.8,0-8.6-5.2-8.6-11.6v-6.5
				C45.6,253.8,49.5,248.6,54.3,248.6L54.3,248.6L54.3,248.6z"/>
		</g>
		
			<linearGradient id="rect851_00000134932935287757297710000011394125235218354322_" gradientUnits="userSpaceOnUse" x1="-527.3163" y1="550.3403" x2="-448.0106" y2="550.3403" gradientTransform="matrix(2.8346 0 0 2.8316 1535.8309 -1249.8436)">
			<stop  offset="0" style="stop-color:#001635"/>
			<stop  offset="1" style="stop-color:#000B1D"/>
		</linearGradient>
		<path id="rect851" style="fill:url(#rect851_00000134932935287757297710000011394125235218354322_);" d="M141.2,236.3v11.9h-28
			C127.1,248.2,130.8,244.1,141.2,236.3z M141.2,236.3h112.6c6.6,0,12,5.3,12,11.9H141.2V236.3z M53.1,248.2h212.8v120.5
			c0,6.6-5.4,12-12,12l0,0H53.1c-6.6,0-12-5.4-12-12l0,0V260.2C41.1,253.6,46.4,248.2,53.1,248.2L53.1,248.2L53.1,248.2z"/>
		
			<linearGradient id="rect851-3_00000078016628718310842290000008812990647202271134_" gradientUnits="userSpaceOnUse" x1="-494.5619" y1="529.8443" x2="-479.2531" y2="576.1414" gradientTransform="matrix(2.8346 0 0 2.8346 1535.6814 -1250.4783)">
			<stop  offset="0" style="stop-color:#001635;stop-opacity:0.4"/>
			<stop  offset="1" style="stop-color:#000B1D"/>
		</linearGradient>
		
			<path id="rect851-3" sodipodi:nodetypes="cccccccccccsccssc" style="fill:url(#rect851-3_00000078016628718310842290000008812990647202271134_);" d="
			M142.6,241.1V253h-28C128.5,252.9,132.2,248.9,142.6,241.1z M142.6,241.1h111.2c6.6,0,12,5.3,12,11.9H142.6V241.1z M53.1,253
			h212.8v115.7c0,6.6-5.4,12-12,12H53.1c-6.6,0-12-5.4-12-12V265C41.1,258.3,46.4,253,53.1,253z"/>
	</g>
</g>
<g id="Outlined_Mnemonics_Logos_17_">
	<g id="Pf">
		<path class="st4" d="M67.4,134.9V66.7c0-0.5,0.2-0.7,0.7-0.7c1.1,0,2.5,0,4.1-0.1c1.6-0.1,3.3-0.1,5.1-0.1
			c1.8-0.1,3.7-0.1,5.8-0.1s4.1-0.1,6.1-0.1c5.5,0,10,0.7,13.7,2.1c3.3,1.1,6.4,3,8.9,5.5c2.1,2.1,3.8,4.7,4.9,7.6
			c1,2.8,1.5,5.7,1.5,8.7c0,5.7-1.3,10.5-4,14.2c-2.7,3.7-6.4,6.5-10.7,8.1c-4.8,1.7-9.9,2.6-15,2.5c-1.6,0-2.7,0-3.3-0.1
			c-0.7-0.1-1.9,0.1-3.1,0.1v20.8c0.1,0.5-0.3,0.9-0.7,0.9c-0.1,0-0.1,0-0.3,0l-12.8-0.2C67.7,135.7,67.4,135.5,67.4,134.9z M82,79
			v22.2c0.9,0.1,2.1-0.1,2.9-0.1h3.5c2.6,0.1,5.2-0.3,7.7-1.1c2.1-0.6,4-1.9,5.5-3.5c1.4-1.7,2.1-3.9,2.1-6.9
			c0.1-2.1-0.5-4.1-1.5-5.9c-1.1-1.7-2.7-3.1-4.7-3.8c-2.5-1-5.1-1.4-7.9-1.3c-1.7,0-3.3,0-4.5,0.1C84,78.7,83,78.8,82,79z"/>
		<path class="st4" d="M132.1,95.1h-6.6c-0.5-0.1-0.7-0.3-0.7-0.7v-11c-0.1-0.3,0.2-0.7,0.5-0.7c0.1,0,0.1,0,0.2,0h6.6v-1.5
			c0-2.3,0.1-4.5,0.5-6.7c0.3-1.9,0.9-3.7,1.7-5.4c1.4-2.9,3.5-5.3,6.1-7.2c2.7-1.9,6.1-2.8,10.5-2.8c1.1,0,2.1,0.1,3.1,0.1
			c0.9,0.1,1.7,0.3,2.5,0.6c0.5,0.1,0.7,0.6,0.7,1.1v10.6c0,0.5-0.3,0.7-0.9,0.5c-0.5-0.1-1.1-0.1-1.6-0.1h-1.6
			c-1.2,0-2.3,0.2-3.4,0.7c-1,0.5-1.8,1.5-2.1,2.5c-0.7,1.5-1,3.1-1.1,4.8v2.7h9.1c0.4,0,0.7,0.1,0.8,0.2c0.1,0.2,0.2,0.4,0.1,0.7
			v10.9c0,0.5-0.3,0.7-0.9,0.7h-9.1v39.7c0,0.2-0.1,0.5-0.1,0.7c-0.1,0.2-0.4,0.3-0.8,0.3H133c-0.6,0-0.9-0.3-0.9-0.9L132.1,95.1
			L132.1,95.1z"/>
	</g>
</g>
</svg>
