<?xml version="1.0" encoding="utf-8"?>
<!-- Generator: Adobe Illustrator 26.0.1, SVG Export Plug-In . SVG Version: 6.00 Build 0)  -->
<svg version="1.1" id="Layer_1" xmlns="http://www.w3.org/2000/svg" xmlns:xlink="http://www.w3.org/1999/xlink" x="0px" y="0px"
	 viewBox="0 0 224.8 175.5" style="enable-background:new 0 0 224.8 175.5;" xml:space="preserve">
<style type="text/css">
	.st0{fill:url(#rect10_00000101077769640753087890000007630516937179086477_);}
	.st1{opacity:0.3096;enable-background:new    ;}
	.st2{fill:url(#rect851_00000162341478448143902270000016433595316518233220_);}
	.st3{fill:url(#rect851-3_00000088110091262841396650000011942701156681451920_);}
	.st4{fill:#FA0F00;}
</style>
<g id="svg8" xmlns:cc="http://creativecommons.org/ns#" xmlns:dc="http://purl.org/dc/elements/1.1/" xmlns:inkscape="http://www.inkscape.org/namespaces/inkscape" xmlns:rdf="http://www.w3.org/1999/02/22-rdf-syntax-ns#" xmlns:sodipodi="http://sodipodi.sourceforge.net/DTD/sodipodi-0.dtd" xmlns:svg="http://www.w3.org/2000/svg">
	<defs>
		
			<inkscape:path-effect  effect="bounding_box" id="path-effect1893" is_visible="true" linkedpath="" lpeversion="1" visualbounds="true">
			</inkscape:path-effect>
		
			<inkscape:path-effect  apply_no_radius="true" apply_with_radius="true" chamfer_steps="1" effect="fillet_chamfer" flexible="false" hide_knots="false" id="path-effect1331" is_visible="true" lpeversion="1" method="arc" mode="F" only_selected="false" radius="8" satellites_param="F,0,0,1,0,2.1166667,0,1 @ F,0,0,1,0,2.1166667,0,1 @ F,0,0,1,0,2.1166667,0,1 @ F,0,0,1,0,2.1166667,0,1" unit="px" use_knot_distance="true">
			</inkscape:path-effect>
		
			<inkscape:path-effect  apply_no_radius="true" apply_with_radius="true" chamfer_steps="1" effect="fillet_chamfer" flexible="false" hide_knots="false" id="path-effect24" is_visible="true" lpeversion="1" method="auto" mode="F" only_selected="false" radius="16" satellites_param="F,0,0,1,0,4.2333333,0,1 @ F,0,0,1,0,0,0,1 @ F,0,0,1,0,4.2333333,0,1 @ F,0,0,1,0,4.2333333,0,1" unit="px" use_knot_distance="true">
			</inkscape:path-effect>
		
			<inkscape:path-effect  apply_no_radius="true" apply_with_radius="true" chamfer_steps="1" effect="fillet_chamfer" flexible="false" hide_knots="false" id="path-effect22" is_visible="true" lpeversion="1" method="auto" mode="F" only_selected="false" radius="16" satellites_param="F,0,0,1,0,0,0,1 @ F,0,0,1,0,4.2333333,0,1 @ F,0,0,1,0,0,0,1 @ F,0,0,1,0,0,0,1" unit="px" use_knot_distance="true">
			</inkscape:path-effect>
		
			<inkscape:path-effect  apply_no_radius="true" apply_with_radius="true" chamfer_steps="1" effect="fillet_chamfer" flexible="false" hide_knots="false" id="path-effect21" is_visible="true" lpeversion="1" method="auto" mode="F" only_selected="false" radius="16" satellites_param="F,0,0,1,0,0,0,1 @ F,0,0,1,0,4.2333333,0,1 @ F,0,0,1,0,4.2333333,0,1 @ F,0,0,1,0,4.2333333,0,1" unit="px" use_knot_distance="true">
			</inkscape:path-effect>
		
			<inkscape:path-effect  apply_no_radius="true" apply_with_radius="true" chamfer_steps="1" effect="fillet_chamfer" flexible="false" hide_knots="false" id="path-effect19" is_visible="true" lpeversion="1" method="auto" mode="F" only_selected="false" radius="16" satellites_param="F,0,0,1,0,4.2333333,0,1 @ F,0,0,1,0,0,0,1 @ F,0,0,1,0,0,0,1 @ F,0,0,1,0,0,0,1" unit="px" use_knot_distance="true">
			</inkscape:path-effect>
	</defs>
	
		<sodipodi:namedview  bordercolor="#666666" borderopacity="1.0" id="base" inkscape:current-layer="layer1" inkscape:cx="130.00668" inkscape:cy="101.16213" inkscape:document-rotation="0" inkscape:document-units="mm" inkscape:pageopacity="0.0" inkscape:pageshadow="2" inkscape:window-height="1024" inkscape:window-maximized="0" inkscape:window-width="1212" inkscape:window-x="1675" inkscape:window-y="0" inkscape:zoom="2" pagecolor="#ffffff" showgrid="false">
		</sodipodi:namedview>
	<g id="layer1" transform="translate(-41.064705,-208.49026)" inkscape:groupmode="layer" inkscape:label="Ebene 1">
		
			<linearGradient id="rect10_00000009564308453022049470000010203999058748428961_" gradientUnits="userSpaceOnUse" x1="194.5647" y1="177.9903" x2="194.5647" y2="2.4903" gradientTransform="matrix(1 0 0 -1 -41.0647 386.4903)">
			<stop  offset="0.4" style="stop-color:#FA0F00"/>
			<stop  offset="0.6" style="stop-color:#1C0000"/>
		</linearGradient>
		
			<path id="rect10" sodipodi:nodetypes="scccscccccccs" style="fill:url(#rect10_00000009564308453022049470000010203999058748428961_);" d="
			M53.1,208.5c-6.6,0-12,5.4-12,12v11.8V372c0,6.6,5.4,12,12,12h200.8c6.6,0,12-5.4,12-12V244.3c0-6.6-5.4-12-12-12H141.5
			c0,0-11.4-15.7-16.3-19.3c-4.9-3.6-10.7-4.5-10.7-4.5H53.1z"/>
		<g id="rect873" inkscape:path-effect="#path-effect1331" sodipodi:type="rect" class="st1">
			<path d="M54.3,248.6h79.3c4.8,0,8.6,5.2,8.6,11.6l0,0v6.5c0,6.4-3.9,11.6-8.6,11.6H54.3c-4.8,0-8.6-5.2-8.6-11.6v-6.5
				C45.6,253.8,49.5,248.6,54.3,248.6L54.3,248.6L54.3,248.6z"/>
		</g>
		
			<linearGradient id="rect851_00000064315816757413728950000014929487807173350572_" gradientUnits="userSpaceOnUse" x1="-243.1212" y1="397.0701" x2="-163.8155" y2="397.0701" gradientTransform="matrix(2.8346 0 0 2.8316 730.2514 -815.8436)">
			<stop  offset="0" style="stop-color:#4F0000"/>
			<stop  offset="1" style="stop-color:#370000"/>
		</linearGradient>
		<path id="rect851" style="fill:url(#rect851_00000064315816757413728950000014929487807173350572_);" d="M141.2,236.3v11.9h-28
			C127.1,248.2,130.8,244.1,141.2,236.3z M141.2,236.3h112.6c6.6,0,12,5.3,12,11.9H141.2V236.3z M53.1,248.2h212.8v120.5
			c0,6.6-5.4,12-12,12l0,0H53.1c-6.6,0-12-5.4-12-12l0,0V260.2C41.1,253.6,46.4,248.2,53.1,248.2L53.1,248.2L53.1,248.2z"/>
		
			<linearGradient id="rect851-3_00000042719517599448292830000003899159033659914900_" gradientUnits="userSpaceOnUse" x1="-210.3667" y1="376.7363" x2="-195.0579" y2="423.0334" gradientTransform="matrix(2.8346 0 0 2.8346 730.1018 -816.4783)">
			<stop  offset="0" style="stop-color:#4F0000;stop-opacity:0.4"/>
			<stop  offset="1" style="stop-color:#370000"/>
		</linearGradient>
		
			<path id="rect851-3" sodipodi:nodetypes="cccccccccccsccssc" style="fill:url(#rect851-3_00000042719517599448292830000003899159033659914900_);" d="
			M142.6,241.1V253h-28C128.5,252.9,132.2,248.9,142.6,241.1z M142.6,241.1h111.2c6.6,0,12,5.3,12,11.9H142.6V241.1z M53.1,253
			h212.8v115.7c0,6.6-5.4,12-12,12H53.1c-6.6,0-12-5.4-12-12V265C41.1,258.3,46.4,253,53.1,253z"/>
	</g>
</g>
<g id="Outlined_Mnemonics_Logos_13_">
	<g id="Sp">
		<path class="st4" d="M80.6,136.7c-3.7,0-7.3-0.3-10.9-1c-2.8-0.5-5.6-1.4-8.2-2.6c-0.6-0.3-0.9-0.9-0.9-1.8v-12.8
			c0-0.2,0.1-0.4,0.3-0.6c0.2-0.1,0.5-0.1,0.7,0.1c5.8,3.6,12.6,5.5,19.4,5.6c4.1,0,7-0.6,8.7-1.9c1.6-1,2.6-2.8,2.7-4.7
			c0-1.1-0.3-2.3-0.9-3.3c-0.8-1.2-1.8-2.1-3-2.8c-1.9-1.1-3.8-2.1-5.9-2.9l-5.3-2.3c-4.4-1.9-7.8-3.8-10.3-6
			c-2.2-1.8-4-4.2-5.1-6.8c-0.9-2.5-1.4-5.2-1.4-7.8c-0.1-7.8,4.4-14.9,11.5-18c3.8-1.8,8.5-2.7,14.2-2.7c3.2,0,6.4,0.2,9.6,0.7
			c2.5,0.3,4.9,0.9,7.1,2c0.5,0.3,0.8,0.8,0.7,1.4v12.2c0,0.2-0.1,0.4-0.3,0.5c-0.2,0.2-0.4,0.2-0.7-0.1c-2.4-1.2-4.9-2.1-7.5-2.7
			c-3-0.7-6-1-9-1c-1.8,0-3.5,0.1-5.3,0.5c-1.2,0.3-2.4,0.7-3.5,1.3c-0.8,0.5-1.5,1.2-2,2c-0.4,0.8-0.7,1.6-0.7,2.5
			c0,1.1,0.3,2.2,1,3.1c0.9,1.1,2,2,3.2,2.7c2,1.2,4.1,2.2,6.3,3.2l4,1.5c4.7,1.9,8.4,4,11.1,6.2c2.4,1.9,4.3,4.3,5.6,7.1
			c1.1,2.6,1.6,5.4,1.6,8.2c0.1,4-1.1,7.9-3.4,11.1c-2.4,3.3-5.6,5.8-9.4,7.3C90.8,135.9,86.1,136.7,80.6,136.7z"/>
		<path class="st4" d="M137,81.2c4.7,0,8.8,0.7,12.1,2.1c3.2,1.3,6,3.3,8.4,5.8c2.2,2.4,3.9,5.2,5,8.3c1.1,3.1,1.7,6.4,1.7,9.8
			c0.1,4.4-0.8,8.9-2.7,12.9c-1.8,3.6-4.3,6.7-7.4,9.2c-3.2,2.5-6.7,4.4-10.6,5.5c-3.9,1.2-8,1.8-12.1,1.8c-0.3,0-0.6,0-0.9-0.1
			c-0.4,0-1.1-0.1-1.5-0.1v18.2c0.1,0.5-0.3,0.9-0.8,1c0,0-0.1,0-0.1,0c-1.1,0.1-2,0.2-3.5,0.3c-1.5,0.1-2.9,0.3-4.2,0.4
			c-1.4,0.1-2.5,0.2-3.5,0.3c-0.6,0-1.2,0.1-1.8,0.2c-0.4,0-0.7-0.3-0.7-0.9v-63c0-0.5,0-1.2-0.1-2.1s-0.1-1.8-0.1-2.7
			c0-0.7-0.1-1.4-0.2-2.1c-0.1-0.3,0.1-0.6,0.4-0.7c1.8-0.6,3.8-1.3,6.2-1.9c2.3-0.7,4.9-1.2,7.6-1.7
			C131.1,81.5,134.1,81.2,137,81.2z M135.7,93.9c-1.1,0-2.2,0.1-3.3,0.2c-1,0.1-2.4,0-3.5,0.3v29.3c0.7,0.2,1.3,0.4,2,0.5
			c0.7,0,1.2,0.1,1.7,0.1c2.6,0,5.2-0.5,7.6-1.6c2.5-1.1,4.6-2.8,6.2-5.1c1.6-2.4,2.5-5.5,2.5-9.3c0-4.6-1.1-8.1-3.4-10.6
			C143.1,95.2,139.9,93.9,135.7,93.9L135.7,93.9z"/>
	</g>
</g>
</svg>
