<?xml version="1.0" encoding="utf-8"?>
<!-- Generator: Adobe Illustrator 26.0.1, SVG Export Plug-In . SVG Version: 6.00 Build 0)  -->
<svg version="1.1" id="Layer_1" xmlns="http://www.w3.org/2000/svg" xmlns:xlink="http://www.w3.org/1999/xlink" x="0px" y="0px"
	 viewBox="0 0 224.8 175.5" style="enable-background:new 0 0 224.8 175.5;" xml:space="preserve">
<style type="text/css">
	.st0{fill:url(#rect10_00000114050095979845708100000004126096343022038662_);}
	.st1{opacity:0.3096;enable-background:new    ;}
	.st2{fill:url(#rect851_00000093880373027897793590000012501011420100237245_);}
	.st3{fill:url(#rect851-3_00000116941554207069917780000000493615679796256925_);}
	.st4{fill:#FFFFFF;}
</style>
<g id="svg8" xmlns:cc="http://creativecommons.org/ns#" xmlns:dc="http://purl.org/dc/elements/1.1/" xmlns:inkscape="http://www.inkscape.org/namespaces/inkscape" xmlns:rdf="http://www.w3.org/1999/02/22-rdf-syntax-ns#" xmlns:sodipodi="http://sodipodi.sourceforge.net/DTD/sodipodi-0.dtd" xmlns:svg="http://www.w3.org/2000/svg">
	<defs>
		
			<inkscape:path-effect  effect="bounding_box" id="path-effect1893" is_visible="true" linkedpath="" lpeversion="1" visualbounds="true">
			</inkscape:path-effect>
		
			<inkscape:path-effect  apply_no_radius="true" apply_with_radius="true" chamfer_steps="1" effect="fillet_chamfer" flexible="false" hide_knots="false" id="path-effect1331" is_visible="true" lpeversion="1" method="arc" mode="F" only_selected="false" radius="8" satellites_param="F,0,0,1,0,2.1166667,0,1 @ F,0,0,1,0,2.1166667,0,1 @ F,0,0,1,0,2.1166667,0,1 @ F,0,0,1,0,2.1166667,0,1" unit="px" use_knot_distance="true">
			</inkscape:path-effect>
		
			<inkscape:path-effect  apply_no_radius="true" apply_with_radius="true" chamfer_steps="1" effect="fillet_chamfer" flexible="false" hide_knots="false" id="path-effect24" is_visible="true" lpeversion="1" method="auto" mode="F" only_selected="false" radius="16" satellites_param="F,0,0,1,0,4.2333333,0,1 @ F,0,0,1,0,0,0,1 @ F,0,0,1,0,4.2333333,0,1 @ F,0,0,1,0,4.2333333,0,1" unit="px" use_knot_distance="true">
			</inkscape:path-effect>
		
			<inkscape:path-effect  apply_no_radius="true" apply_with_radius="true" chamfer_steps="1" effect="fillet_chamfer" flexible="false" hide_knots="false" id="path-effect22" is_visible="true" lpeversion="1" method="auto" mode="F" only_selected="false" radius="16" satellites_param="F,0,0,1,0,0,0,1 @ F,0,0,1,0,4.2333333,0,1 @ F,0,0,1,0,0,0,1 @ F,0,0,1,0,0,0,1" unit="px" use_knot_distance="true">
			</inkscape:path-effect>
		
			<inkscape:path-effect  apply_no_radius="true" apply_with_radius="true" chamfer_steps="1" effect="fillet_chamfer" flexible="false" hide_knots="false" id="path-effect21" is_visible="true" lpeversion="1" method="auto" mode="F" only_selected="false" radius="16" satellites_param="F,0,0,1,0,0,0,1 @ F,0,0,1,0,4.2333333,0,1 @ F,0,0,1,0,4.2333333,0,1 @ F,0,0,1,0,4.2333333,0,1" unit="px" use_knot_distance="true">
			</inkscape:path-effect>
		
			<inkscape:path-effect  apply_no_radius="true" apply_with_radius="true" chamfer_steps="1" effect="fillet_chamfer" flexible="false" hide_knots="false" id="path-effect19" is_visible="true" lpeversion="1" method="auto" mode="F" only_selected="false" radius="16" satellites_param="F,0,0,1,0,4.2333333,0,1 @ F,0,0,1,0,0,0,1 @ F,0,0,1,0,0,0,1 @ F,0,0,1,0,0,0,1" unit="px" use_knot_distance="true">
			</inkscape:path-effect>
	</defs>
	
		<sodipodi:namedview  bordercolor="#666666" borderopacity="1.0" id="base" inkscape:current-layer="layer1" inkscape:cx="130.00668" inkscape:cy="101.16213" inkscape:document-rotation="0" inkscape:document-units="mm" inkscape:pageopacity="0.0" inkscape:pageshadow="2" inkscape:window-height="1024" inkscape:window-maximized="0" inkscape:window-width="1212" inkscape:window-x="1675" inkscape:window-y="0" inkscape:zoom="2" pagecolor="#ffffff" showgrid="false">
		</sodipodi:namedview>
	<g id="layer1" transform="translate(-41.064705,-208.49026)" inkscape:groupmode="layer" inkscape:label="Ebene 1">
		
			<linearGradient id="rect10_00000085227068546502452520000018380280687357973180_" gradientUnits="userSpaceOnUse" x1="276.6941" y1="-256.0097" x2="276.6941" y2="-431.5097" gradientTransform="matrix(1 0 0 -1 -123.1941 -47.5097)">
			<stop  offset="0.4" style="stop-color:#A9BDD3"/>
			<stop  offset="0.6" style="stop-color:#000102"/>
		</linearGradient>
		
			<path id="rect10" sodipodi:nodetypes="scccscccccccs" style="fill:url(#rect10_00000085227068546502452520000018380280687357973180_);" d="
			M53.1,208.5c-6.6,0-12,5.4-12,12v11.8V372c0,6.6,5.4,12,12,12h200.8c6.6,0,12-5.4,12-12V244.3c0-6.6-5.4-12-12-12H141.5
			c0,0-11.4-15.7-16.3-19.3c-4.9-3.6-10.7-4.5-10.7-4.5H53.1z"/>
		<g id="rect873" inkscape:path-effect="#path-effect1331" sodipodi:type="rect" class="st1">
			<path d="M54.3,248.6h79.3c4.8,0,8.6,5.2,8.6,11.6l0,0v6.5c0,6.4-3.9,11.6-8.6,11.6H54.3c-4.8,0-8.6-5.2-8.6-11.6v-6.5
				C45.6,253.8,49.5,248.6,54.3,248.6L54.3,248.6L54.3,248.6z"/>
		</g>
		
			<linearGradient id="rect851_00000016044079797307555190000008735520439665149850_" gradientUnits="userSpaceOnUse" x1="-527.3163" y1="550.3403" x2="-448.0106" y2="550.3403" gradientTransform="matrix(2.8346 0 0 2.8316 1535.8309 -1249.8436)">
			<stop  offset="0" style="stop-color:#001635"/>
			<stop  offset="1" style="stop-color:#000B1D"/>
		</linearGradient>
		<path id="rect851" style="fill:url(#rect851_00000016044079797307555190000008735520439665149850_);" d="M141.2,236.3v11.9h-28
			C127.1,248.2,130.8,244.1,141.2,236.3z M141.2,236.3h112.6c6.6,0,12,5.3,12,11.9H141.2V236.3z M53.1,248.2h212.8v120.5
			c0,6.6-5.4,12-12,12l0,0H53.1c-6.6,0-12-5.4-12-12l0,0V260.2C41.1,253.6,46.4,248.2,53.1,248.2L53.1,248.2L53.1,248.2z"/>
		
			<linearGradient id="rect851-3_00000145773236437747788470000008356182515660605102_" gradientUnits="userSpaceOnUse" x1="-494.5619" y1="529.8443" x2="-479.2531" y2="576.1414" gradientTransform="matrix(2.8346 0 0 2.8346 1535.6814 -1250.4783)">
			<stop  offset="0" style="stop-color:#001635;stop-opacity:0.4"/>
			<stop  offset="1" style="stop-color:#000B1D"/>
		</linearGradient>
		
			<path id="rect851-3" sodipodi:nodetypes="cccccccccccsccssc" style="fill:url(#rect851-3_00000145773236437747788470000008356182515660605102_);" d="
			M142.6,241.1V253h-28C128.5,252.9,132.2,248.9,142.6,241.1z M142.6,241.1h111.2c6.6,0,12,5.3,12,11.9H142.6V241.1z M53.1,253
			h212.8v115.7c0,6.6-5.4,12-12,12H53.1c-6.6,0-12-5.4-12-12V265C41.1,258.3,46.4,253,53.1,253z"/>
	</g>
</g>
<g>
	<path class="st4" d="M91,136c-3.9,0-7.5-0.4-10.7-1c-3.2-0.6-5.9-1.5-8.2-2.6c-0.6-0.3-0.8-0.9-0.8-1.8V118c0-0.3,0.1-0.4,0.3-0.6
		c0.1-0.1,0.4-0.1,0.6,0.1c3,1.9,6.1,3.2,9.4,4.1c3.3,0.9,6.5,1.3,9.7,1.3c4,0,6.9-0.6,8.7-1.9c1.8-1.2,2.6-2.8,2.6-4.6
		c0-1.2-0.3-2.3-0.8-3.2c-0.6-0.9-1.5-1.9-3-2.8c-1.4-0.9-3.3-1.9-5.8-2.8l-5.3-2.3c-4.3-1.9-7.6-3.8-10.1-5.9
		c-2.5-2.1-4.1-4.3-5-6.7c-0.9-2.4-1.4-5-1.4-7.7c0-3.8,0.9-7.3,2.8-10.3c2-3.1,4.6-5.6,8.5-7.3c3.7-1.8,8.5-2.7,14-2.7
		c3.3,0,6.5,0.2,9.5,0.6c2.9,0.4,5.3,1.1,7,2c0.5,0.3,0.7,0.7,0.7,1.3v12c0,0.1-0.1,0.3-0.3,0.4c-0.1,0.1-0.4,0.1-0.6-0.1
		c-2.1-1.1-4.6-2-7.3-2.7c-2.8-0.4-5.8-0.7-8.8-0.7c-2,0-3.8,0.1-5.2,0.5c-1.4,0.4-2.6,0.8-3.4,1.3s-1.5,1.2-2,2
		c-0.4,0.8-0.6,1.7-0.6,2.5c0,1.1,0.3,2.2,0.9,3c0.6,0.9,1.8,1.8,3.2,2.7c1.4,0.9,3.5,2,6.1,3.1l3.9,1.4c4.6,2,8.3,3.9,10.8,6.1
		c2.6,2.2,4.4,4.4,5.5,7s1.5,5.2,1.5,8.2c0,4.1-1.1,7.8-3.3,10.9c-2.3,3.1-5.3,5.6-9.2,7.2C101.1,135.2,96.3,136,91,136L91,136z
		 M153.2,124.5v8.7c0,0.7-0.3,1.2-0.8,1.3c-1.3,0.4-2.8,0.7-4.2,1c-1.4,0.3-3.2,0.4-5.1,0.4c-4.6,0-8.2-1.2-10.8-3.6
		c-2.6-2.4-3.9-6.3-3.9-11.6V94.7h-6.3c-0.6,0-0.8-0.3-0.8-0.9V83.3c0-0.6,0.3-0.8,0.9-0.8h6.3c0.1-1.2,0.1-2.6,0.3-4.1
		c0.1-1.5,0.2-3.2,0.4-4.7c0.1-1.5,0.3-2.9,0.4-3.9c0.1-0.2,0.1-0.4,0.3-0.6c0.1-0.1,0.3-0.3,0.5-0.4l12.6-1.5
		c0.2-0.1,0.4-0.1,0.5,0s0.2,0.3,0.2,0.6c-0.1,1.7-0.2,3.8-0.3,6.6c-0.1,2.8-0.1,5.5-0.2,8.2h9.8c0.4,0,0.6,0.3,0.6,0.8V94
		c0,0.4-0.1,0.6-0.5,0.7h-10v22.6c0,2.4,0.4,4.1,1.2,5.2c0.8,1,2.3,1.5,4.4,1.5c0.6,0,1.2,0,1.8-0.1c0.6,0,1.1-0.1,1.8-0.1
		c0.2-0.1,0.4-0.1,0.6,0.1C153.1,124,153.2,124.2,153.2,124.5z"/>
</g>
</svg>
