<?xml version="1.0" encoding="utf-8"?>
<!-- Generator: Adobe Illustrator 26.0.1, SVG Export Plug-In . SVG Version: 6.00 Build 0)  -->
<svg version="1.1" id="Layer_1" xmlns="http://www.w3.org/2000/svg" xmlns:xlink="http://www.w3.org/1999/xlink" x="0px" y="0px"
	 viewBox="0 0 224.8 175.5" style="enable-background:new 0 0 224.8 175.5;" xml:space="preserve">
<style type="text/css">
	.st0{fill:url(#rect10_00000087390530810468175810000002614500484312619939_);}
	.st1{opacity:0.3096;enable-background:new    ;}
	.st2{fill:url(#rect851_00000111191413212664677290000003298075209879468443_);}
	.st3{fill:url(#rect851-3_00000022540563646191938520000012473647645057428369_);}
	.st4{fill:#FF61F6;}
</style>
<g id="svg8" xmlns:cc="http://creativecommons.org/ns#" xmlns:dc="http://purl.org/dc/elements/1.1/" xmlns:inkscape="http://www.inkscape.org/namespaces/inkscape" xmlns:rdf="http://www.w3.org/1999/02/22-rdf-syntax-ns#" xmlns:sodipodi="http://sodipodi.sourceforge.net/DTD/sodipodi-0.dtd" xmlns:svg="http://www.w3.org/2000/svg">
	<defs>
		
			<inkscape:path-effect  effect="bounding_box" id="path-effect1893" is_visible="true" linkedpath="" lpeversion="1" visualbounds="true">
			</inkscape:path-effect>
		
			<inkscape:path-effect  apply_no_radius="true" apply_with_radius="true" chamfer_steps="1" effect="fillet_chamfer" flexible="false" hide_knots="false" id="path-effect1331" is_visible="true" lpeversion="1" method="arc" mode="F" only_selected="false" radius="8" satellites_param="F,0,0,1,0,2.1166667,0,1 @ F,0,0,1,0,2.1166667,0,1 @ F,0,0,1,0,2.1166667,0,1 @ F,0,0,1,0,2.1166667,0,1" unit="px" use_knot_distance="true">
			</inkscape:path-effect>
		
			<inkscape:path-effect  apply_no_radius="true" apply_with_radius="true" chamfer_steps="1" effect="fillet_chamfer" flexible="false" hide_knots="false" id="path-effect24" is_visible="true" lpeversion="1" method="auto" mode="F" only_selected="false" radius="16" satellites_param="F,0,0,1,0,4.2333333,0,1 @ F,0,0,1,0,0,0,1 @ F,0,0,1,0,4.2333333,0,1 @ F,0,0,1,0,4.2333333,0,1" unit="px" use_knot_distance="true">
			</inkscape:path-effect>
		
			<inkscape:path-effect  apply_no_radius="true" apply_with_radius="true" chamfer_steps="1" effect="fillet_chamfer" flexible="false" hide_knots="false" id="path-effect22" is_visible="true" lpeversion="1" method="auto" mode="F" only_selected="false" radius="16" satellites_param="F,0,0,1,0,0,0,1 @ F,0,0,1,0,4.2333333,0,1 @ F,0,0,1,0,0,0,1 @ F,0,0,1,0,0,0,1" unit="px" use_knot_distance="true">
			</inkscape:path-effect>
		
			<inkscape:path-effect  apply_no_radius="true" apply_with_radius="true" chamfer_steps="1" effect="fillet_chamfer" flexible="false" hide_knots="false" id="path-effect21" is_visible="true" lpeversion="1" method="auto" mode="F" only_selected="false" radius="16" satellites_param="F,0,0,1,0,0,0,1 @ F,0,0,1,0,4.2333333,0,1 @ F,0,0,1,0,4.2333333,0,1 @ F,0,0,1,0,4.2333333,0,1" unit="px" use_knot_distance="true">
			</inkscape:path-effect>
		
			<inkscape:path-effect  apply_no_radius="true" apply_with_radius="true" chamfer_steps="1" effect="fillet_chamfer" flexible="false" hide_knots="false" id="path-effect19" is_visible="true" lpeversion="1" method="auto" mode="F" only_selected="false" radius="16" satellites_param="F,0,0,1,0,4.2333333,0,1 @ F,0,0,1,0,0,0,1 @ F,0,0,1,0,0,0,1 @ F,0,0,1,0,0,0,1" unit="px" use_knot_distance="true">
			</inkscape:path-effect>
	</defs>
	
		<sodipodi:namedview  bordercolor="#666666" borderopacity="1.0" id="base" inkscape:current-layer="layer1" inkscape:cx="130.00668" inkscape:cy="101.16213" inkscape:document-rotation="0" inkscape:document-units="mm" inkscape:pageopacity="0.0" inkscape:pageshadow="2" inkscape:window-height="1024" inkscape:window-maximized="0" inkscape:window-width="1212" inkscape:window-x="1675" inkscape:window-y="0" inkscape:zoom="2" pagecolor="#ffffff" showgrid="false">
		</sodipodi:namedview>
	<g id="layer1" transform="translate(-41.064705,-208.49026)" inkscape:groupmode="layer" inkscape:label="Ebene 1">
		
			<linearGradient id="rect10_00000102515542498303136880000005101820541837098418_" gradientUnits="userSpaceOnUse" x1="235.6294" y1="642.5" x2="235.6294" y2="818" gradientTransform="matrix(1 0 0 1 -82.1294 -434)">
			<stop  offset="0.4" style="stop-color:#FF61F6"/>
			<stop  offset="0.6" style="stop-color:#2B0123"/>
		</linearGradient>
		
			<path id="rect10" sodipodi:nodetypes="scccscccccccs" style="fill:url(#rect10_00000102515542498303136880000005101820541837098418_);" d="
			M53.1,208.5c-6.6,0-12,5.4-12,12v11.8V372c0,6.6,5.4,12,12,12h200.8c6.6,0,12-5.4,12-12V244.3c0-6.6-5.4-12-12-12H141.5
			c0,0-11.4-15.7-16.3-19.3c-4.9-3.6-10.7-4.5-10.7-4.5H53.1z"/>
		<g id="rect873" inkscape:path-effect="#path-effect1331" sodipodi:type="rect" class="st1">
			<path d="M54.3,248.6h79.3c4.8,0,8.6,5.2,8.6,11.6l0,0v6.5c0,6.4-3.9,11.6-8.6,11.6H54.3c-4.8,0-8.6-5.2-8.6-11.6v-6.5
				C45.6,253.8,49.5,248.6,54.3,248.6L54.3,248.6L54.3,248.6z"/>
		</g>
		
			<linearGradient id="rect851_00000049217368737811184330000001014006887776806562_" gradientUnits="userSpaceOnUse" x1="-385.2188" y1="129.7851" x2="-305.9131" y2="129.7851" gradientTransform="matrix(2.8346 0 0 -2.8316 1133.0411 675.9994)">
			<stop  offset="0" style="stop-color:#5E024D"/>
			<stop  offset="1" style="stop-color:#470137"/>
		</linearGradient>
		<path id="rect851" style="fill:url(#rect851_00000049217368737811184330000001014006887776806562_);" d="M141.2,236.3v11.9h-28
			C127.1,248.2,130.8,244.1,141.2,236.3z M141.2,236.3h112.6c6.6,0,12,5.3,12,11.9H141.2V236.3z M53.1,248.2h212.8v120.5
			c0,6.6-5.4,12-12,12l0,0H53.1c-6.6,0-12-5.4-12-12l0,0V260.2C41.1,253.6,46.4,248.2,53.1,248.2L53.1,248.2L53.1,248.2z"/>
		
			<linearGradient id="rect851-3_00000041996128855035572480000011949893886616989362_" gradientUnits="userSpaceOnUse" x1="-352.4643" y1="150.2" x2="-337.1555" y2="103.9029" gradientTransform="matrix(2.8346 0 0 -2.8346 1132.8916 677.1752)">
			<stop  offset="0" style="stop-color:#5E024D;stop-opacity:0.4"/>
			<stop  offset="1" style="stop-color:#470137"/>
		</linearGradient>
		
			<path id="rect851-3" sodipodi:nodetypes="cccccccccccsccssc" style="fill:url(#rect851-3_00000041996128855035572480000011949893886616989362_);" d="
			M142.6,241.1V253h-28C128.5,252.9,132.2,248.9,142.6,241.1z M142.6,241.1h111.2c6.6,0,12,5.3,12,11.9H142.6V241.1z M53.1,253
			h212.8v115.7c0,6.6-5.4,12-12,12H53.1c-6.6,0-12-5.4-12-12V265C41.1,258.3,46.4,253,53.1,253z"/>
	</g>
</g>
<g id="Outlined_Mnemonics_Logos">
	<g id="Xd">
		<path class="st4" d="M116.5,66.7l-20,33l21.3,35c0.1,0.3,0.2,0.5,0.1,0.8c-0.1,0.3-0.3,0.1-0.7,0.1H102c-1.1,0-1.8-0.1-2.3-0.7
			c-1.4-2.8-2.9-5.5-4.3-8.3c-1.4-2.7-2.9-5.5-4.5-8.4s-3.2-5.7-4.8-8.7H86c-1.4,2.9-2.9,5.7-4.5,8.6c-1.5,2.9-3.1,5.7-4.5,8.5
			c-1.5,2.8-3.1,5.7-4.6,8.4c-0.3,0.7-0.8,0.7-1.5,0.7H56.2c-0.3,0-0.5,0.1-0.5-0.2c-0.1-0.3,0-0.5,0.1-0.7l20.7-34L56.4,66.6
			c-0.2-0.3-0.3-0.5-0.1-0.7c0.1-0.2,0.4-0.3,0.7-0.3H72c0.3,0,0.7,0.1,0.9,0.1c0.3,0.1,0.5,0.3,0.7,0.6c1.3,2.9,2.7,5.7,4.3,8.6
			c1.6,2.9,3.1,5.7,4.8,8.5c1.6,2.8,3.1,5.6,4.5,8.5h0.1c1.4-2.9,2.9-5.8,4.3-8.6c1.5-2.8,3-5.6,4.5-8.4c1.5-2.8,3-5.7,4.5-8.4
			c0.1-0.3,0.2-0.5,0.4-0.7c0.3-0.1,0.5-0.2,0.9-0.1H116c0.3-0.1,0.7,0.1,0.7,0.5C116.8,66.3,116.6,66.5,116.5,66.7L116.5,66.7z"/>
		<path class="st4" d="M147.3,137c-4.9,0.1-9.9-0.9-14.3-3c-4.2-1.9-7.7-5.1-10.1-9.1c-2.5-4.1-3.7-9.1-3.7-15.2
			c-0.1-4.9,1.2-9.8,3.7-14.1c2.5-4.3,6.2-7.9,10.6-10.3c4.7-2.6,10.3-3.9,16.9-3.9c0.3,0,0.8,0,1.4,0.1s1.3,0.1,2.1,0.1V60.6
			c0-0.5,0.2-0.7,0.7-0.7H168c0.3-0.1,0.6,0.2,0.7,0.5c0,0.1,0,0.1,0,0.1v63.5c0,1.2,0.1,2.5,0.1,4c0.1,1.4,0.2,2.7,0.3,3.9
			c0,0.5-0.2,0.9-0.7,1.1c-3.5,1.5-7.1,2.5-10.9,3.2C154.2,136.7,150.8,137,147.3,137z M153.8,123.7V94.3c-0.6-0.1-1.2-0.3-1.8-0.3
			c-0.7-0.1-1.5-0.1-2.2-0.1c-2.6,0-5.2,0.5-7.5,1.7c-2.3,1.1-4.2,2.8-5.7,4.9c-1.5,2.1-2.2,5-2.2,8.5c-0.1,2.3,0.3,4.7,1.1,6.9
			c0.7,1.8,1.7,3.4,3,4.7c1.3,1.2,2.8,2.1,4.5,2.7c1.8,0.6,3.7,0.9,5.5,0.9c1,0,1.9-0.1,2.8-0.1C152.3,124.1,153,123.9,153.8,123.7z
			"/>
	</g>
</g>
</svg>
